<svg width="180" height="129" viewBox="0 0 180 129" fill="none" xmlns="http://www.w3.org/2000/svg">
<path d="M51.0425 50.3047C51.0425 51.4899 50.7668 52.403 50.2153 53.0439C49.6675 53.6813 48.8815 54 47.8574 54H45.8701V46.7544H47.5405C48.7186 46.7544 49.5959 47.0498 50.1724 47.6406C50.7524 48.2279 51.0425 49.1159 51.0425 50.3047ZM50.0112 50.3047C50.0112 49.3594 49.8143 48.6719 49.4204 48.2422C49.0265 47.8089 48.4017 47.5923 47.5459 47.5923H46.896V53.1621H47.7661C48.5252 53.1621 49.0892 52.924 49.458 52.4478C49.8268 51.9715 50.0112 51.2572 50.0112 50.3047ZM50.5537 65L49.8125 62.9482H46.7886L46.0527 65H45L47.7393 57.7544H48.9048L51.5957 65H50.5537ZM48.3086 58.5278L48.2441 58.7373L47.8735 59.876L47.0625 62.1479H49.5493L48.6201 59.4624L48.3086 58.5278ZM51.0479 72.3423C51.0479 73.549 50.8097 74.4782 50.3335 75.1299C49.8608 75.7816 49.1805 76.1074 48.2925 76.1074C47.4009 76.1074 46.7205 75.7869 46.2515 75.146C45.7824 74.505 45.5479 73.5705 45.5479 72.3423C45.5479 71.1356 45.7806 70.2171 46.2461 69.5869C46.7116 68.9567 47.3973 68.6416 48.3032 68.6416C49.1877 68.6416 49.8662 68.9531 50.3389 69.5762C50.8115 70.1956 51.0479 71.1177 51.0479 72.3423ZM49.9683 72.3423C49.9683 70.4338 49.4132 69.4795 48.3032 69.4795C47.186 69.4795 46.6274 70.4338 46.6274 72.3423C46.6274 73.3091 46.7689 74.0396 47.0518 74.5337C47.3346 75.0278 47.75 75.2749 48.2979 75.2749C48.8815 75.2749 49.3058 75.0243 49.5708 74.5229C49.8358 74.0216 49.9683 73.2948 49.9683 72.3423ZM50.8276 84.3682C50.8276 85.3242 50.6235 86.0207 50.2153 86.4575C49.8071 86.8908 49.1519 87.1074 48.2495 87.1074C47.3758 87.1074 46.742 86.8979 46.3481 86.479C45.9578 86.0565 45.7627 85.3851 45.7627 84.4648V79.7544H46.7886V84.3252C46.7886 85.0557 46.8924 85.5641 47.1001 85.8506C47.3114 86.1335 47.6927 86.2749 48.2441 86.2749C48.8206 86.2749 49.2253 86.1281 49.458 85.8345C49.6908 85.5409 49.8071 85.0145 49.8071 84.2554V79.7544H50.8276V84.3682ZM120.335 87V85.394H121.597V87H120.335ZM130.336 85.0127C130.336 85.6715 130.094 86.1854 129.611 86.5542C129.131 86.923 128.445 87.1074 127.554 87.1074C125.917 87.1074 124.967 86.4665 124.702 85.1846L125.695 84.9858C125.796 85.4478 126.003 85.7843 126.318 85.9956C126.633 86.2033 127.054 86.3071 127.581 86.3071C128.15 86.3071 128.581 86.1961 128.875 85.9741C129.172 85.7521 129.321 85.437 129.321 85.0288C129.321 84.7782 129.262 84.5741 129.144 84.4165C129.029 84.259 128.877 84.13 128.687 84.0298C128.497 83.9295 128.282 83.849 128.042 83.7881C127.806 83.7236 127.566 83.661 127.323 83.6001C126.746 83.4497 126.334 83.3154 126.087 83.1973C125.844 83.0791 125.649 82.9448 125.502 82.7944C125.355 82.6405 125.244 82.465 125.169 82.2681C125.094 82.0711 125.056 81.8402 125.056 81.5752C125.056 80.9557 125.273 80.4795 125.706 80.1465C126.143 79.8099 126.768 79.6416 127.581 79.6416C128.34 79.6416 128.92 79.7741 129.321 80.0391C129.722 80.304 130.001 80.7516 130.159 81.3818L129.149 81.5591C129.063 81.158 128.891 80.868 128.633 80.689C128.375 80.5063 128.023 80.415 127.575 80.415C126.562 80.415 126.055 80.7964 126.055 81.5591C126.055 81.7739 126.102 81.9494 126.195 82.0854C126.292 82.2179 126.42 82.3289 126.582 82.4185C126.746 82.5044 126.936 82.576 127.151 82.6333C127.369 82.6906 127.602 82.7515 127.849 82.8159C128.347 82.9412 128.705 83.0469 128.923 83.1328C129.142 83.2152 129.335 83.3101 129.503 83.4175C129.675 83.5249 129.822 83.652 129.944 83.7988C130.066 83.9456 130.16 84.1175 130.229 84.3145C130.3 84.5114 130.336 84.7441 130.336 85.0127ZM131.754 87V79.7544H136.69V80.5923H132.78V82.8589H136.368V83.686H132.78V86.1621H136.91V87H131.754Z" fill="black"/>
<path d="M77.5 93H64H37V39H145V93H118H104.5" stroke="black" stroke-width="2"/>
</svg>
