<svg width="9" height="15" viewBox="0 0 9 15" fill="none" xmlns="http://www.w3.org/2000/svg">
<path d="M4.62545 5.87362C4.26181 5.48689 3.75636 5.02418 3.10909 4.4855C2.39636 3.89159 1.91636 3.4237 1.66909 3.08184C1.42182 2.74 1.29818 2.36534 1.29818 1.95787C1.29818 1.35015 1.59636 0.871906 2.19273 0.523135C2.78909 0.174393 3.56727 1.46936e-05 4.52727 0C5.48727 1.46936e-05 6.32545 0.155401 7.04182 0.46616C7.75817 0.776948 8.11635 1.20512 8.11636 1.75069C8.11635 2.01313 8.02908 2.23068 7.85455 2.40332C7.67999 2.57598 7.47635 2.6623 7.24364 2.66229C6.90908 2.6623 6.51636 2.42405 6.06545 1.94751C5.60727 1.4641 5.21999 1.12398 4.90364 0.927141C4.58727 0.730332 4.21818 0.63192 3.79637 0.631906C3.25818 0.63192 2.81636 0.74587 2.47091 0.973757C2.12545 1.20167 1.95273 1.49173 1.95273 1.84392C1.95273 2.17543 2.09454 2.4862 2.37818 2.77624C2.66182 3.06631 3.39272 3.59462 4.57091 4.36119C5.82908 5.18302 6.71817 5.82528 7.23818 6.28798C7.75817 6.7507 8.18181 7.31354 8.50909 7.97652C8.83635 8.63951 8.99999 9.34048 9 10.0794C8.99999 11.3778 8.51817 12.5224 7.55454 13.5135C6.5909 14.5045 5.46545 15 4.17818 15C3.00727 15 2.01818 14.6029 1.21091 13.8087C0.403636 13.0145 0 11.9544 0 10.6285C0 9.35083 0.445454 8.28385 1.33636 7.42749C2.22727 6.57114 3.32363 6.05318 4.62545 5.87362ZM5.10545 6.35014C3.01818 6.67473 1.97454 8.03523 1.97455 10.4316C1.97454 11.6678 2.23454 12.6278 2.75455 13.3115C3.27454 13.9952 3.87999 14.337 4.57091 14.337C5.2909 14.337 5.88363 14.0073 6.34909 13.3477C6.81454 12.6882 7.04726 11.7956 7.04727 10.6699C7.04726 9.04006 6.39999 7.60015 5.10545 6.35014Z" fill="black"/>
</svg>
