<svg id="Layer_1" data-name="Layer 1" xmlns="http://www.w3.org/2000/svg" viewBox="0 0 862.45 253.96"><defs><style>.cls-1{fill:#33367c;}.cls-2{fill:#00ade6;}.cls-3{fill:#19cd9b;}</style></defs><title>wedonthavetime-2-line</title><path class="cls-1" d="M285.73,71.56l-13.32,42.72H250.34L229.82,45a33.26,33.26,0,0,0-2.16-5.16l-4.92-9.72v-.24h38.63v.24l-4.19,9a3.44,3.44,0,0,0-.25,3.24l16.92,58,10.44-33.6L277.93,45a23.75,23.75,0,0,0-1.68-4.68l-4.8-10.2v-.24h38v.24l-4.2,9a3.44,3.44,0,0,0-.24,3.24L322,100.12l13.92-46.2c.6-1.92.6-2.28-.6-4.32L324.37,30.16v-.24h29.16v.24L340.93,49.6a15.66,15.66,0,0,0-2.52,5.4l-17.88,59.28H298.45Z"/><path class="cls-1" d="M366.5,83c.48,14,8.28,18.72,17,18.72,6.48,0,13.92-2.88,17.64-9.24l.23.12c-3.35,15.6-13.43,22.68-28.31,22.68-16.2,0-31.8-9.24-31.8-30.6,0-21.84,14.28-31.2,32.76-31.2,13.32,0,28.19,5.52,28.19,27a21.24,21.24,0,0,1-.11,2.52Zm0-2.28h13.56c.12-1.92.12-3.84.12-5.52,0-17-3.24-19.32-6.6-19.32C369,55.84,366.5,60.16,366.5,80.68Z"/><path class="cls-1" d="M429.26,114l6.59-8.64a3.76,3.76,0,0,0,1-3.12V41.92a3.76,3.76,0,0,0-1-3.12l-6.59-8.64v-.24h42.83c28.68,0,42.72,16,42.72,40,0,29-17.28,44.4-46.08,44.4H429.26Zm39-2.28c14.4,0,16.08-16.08,16.08-39.72,0-23.28-1.68-39.6-16.08-39.6h-2.52c-1.8,0-2,.12-2,2.16v75c0,2,.24,2.16,2,2.16Z"/><path class="cls-1" d="M519.14,84.16c0-20.52,13.92-30.72,34.43-30.72S588,63.4,588,84.52c0,20.52-13.92,30.72-34.44,30.72S519.14,105.28,519.14,84.16Zm26.87,0c0,24.6,2.76,28.68,7.56,28.68s7.56-3.72,7.56-28.32-2.76-28.68-7.56-28.68S546,59.56,546,84.16Z"/><path class="cls-1" d="M660.85,108.16l4.68,5.88v.24H630V114l4.56-5.88a3.66,3.66,0,0,0,1-3c0-2.4.36-17.4.36-23.64,0-8.76-1-16.56-8.52-16.56a8.47,8.47,0,0,0-6.84,3.36v36.84a3.66,3.66,0,0,0,1,3l4.68,5.88v.24h-35.4V114l4.56-5.88a3.66,3.66,0,0,0,1-3V63.64a3.66,3.66,0,0,0-1-3l-4.56-6V54.4h29.76V66.52c3-7.32,9.36-13.08,19.8-13.08,13,0,19.92,9.48,19.92,26,0,8.28-.24,16.2-.36,25.68A3.66,3.66,0,0,0,660.85,108.16Z"/><path class="cls-1" d="M660.85,62.32c4.8-2.4,9-7.92,9-14,0-1.44-.48-1.68-1.8-1.92-4.92-.84-7.56-4.2-7.56-8.76,0-4.92,3.72-8.88,9.24-8.88,6,0,10.2,4.44,10.2,11.4,0,10.44-7.8,19.92-19,22.44Z"/><path class="cls-1" d="M682,97.12V56.92h-5.52V54.4h4.8c1.92,0,2.76,0,4.08-1.2L706,33.76h.24V54.4h13.44v2.52H706.21V95.68c0,5.4,2.4,8.4,6,8.4A7.15,7.15,0,0,0,718,101.2l.24.12c-1.2,6.6-6.48,13.92-19.08,13.92C687.61,115.24,682,108.88,682,97.12Z"/><path class="cls-1" d="M319.09,212.28a3.79,3.79,0,0,0,1,3.12l6.6,8.64v.24h-42V224l6.6-8.64a3.79,3.79,0,0,0,1-3.12v-30H269.05v30a3.79,3.79,0,0,0,1,3.12l6.6,8.64v.24h-42V224l6.6-8.64a3.79,3.79,0,0,0,1-3.12V151.92a3.79,3.79,0,0,0-1-3.12l-6.6-8.64v-.24h42v.24L270,148.8a3.79,3.79,0,0,0-1,3.12v27.84h23.16V151.92a3.79,3.79,0,0,0-1-3.12l-6.6-8.64v-.24h42v.24l-6.6,8.64a3.79,3.79,0,0,0-1,3.12Z"/><path class="cls-1" d="M362.17,179.16v-.72c0-7.68-1.8-12.6-6.6-12.6-1.92,0-2.15.12-2.76,1.2l-11.15,19.32h-.24l-8.64-18a81.76,81.76,0,0,1,26.4-4.92c8.63,0,15.83,1.56,20.51,5.88,4.08,3.72,6.36,9.48,6.36,18.24,0,1.56-.12,2.88-.12,3.24l-1,18.12c-.24,4.56.84,6.48,2.76,6.48a3.25,3.25,0,0,0,2.88-1.56h.24a7.89,7.89,0,0,1-1,4.8c-2.4,4.08-6.84,6.6-13.32,6.6-7.56,0-14.16-4.2-14.88-11a17.28,17.28,0,0,1-16.55,11c-9,0-16.68-6-16.68-17.52,0-12.12,10.56-18.48,20.52-18.48,5.75,0,9.95.84,12.95,3ZM351,205.2c0,6.84,2.52,10.08,6,10.08a6.08,6.08,0,0,0,4.55-2.52l.36-19.2a13,13,0,0,0-3.12-.36C353.89,193.2,351,198.12,351,205.2Z"/><path class="cls-1" d="M409.7,224.28,395.78,181.2c-1.08-3.24-1.8-5.28-2.88-7.92l-3.72-8.64v-.24h33.24v.24l-3.12,7.56a3.76,3.76,0,0,0-.24,3l10.68,35.28,7.44-22.68c.84-2.52.71-3-.12-5l-7.2-18.12v-.24h21.71v.24l-9,17.16a43.07,43.07,0,0,0-3,6.48l-11.75,36Z"/><path class="cls-1" d="M474.5,193c.48,14,8.27,18.72,17,18.72,6.48,0,13.92-2.88,17.64-9.24l.24.12c-3.36,15.6-13.44,22.68-28.31,22.68-16.2,0-31.8-9.24-31.8-30.6,0-21.84,14.28-31.2,32.76-31.2,13.31,0,28.19,5.52,28.19,27a19.48,19.48,0,0,1-.12,2.52Zm0-2.28h13.56c.11-1.92.11-3.84.11-5.52,0-17-3.24-19.32-6.6-19.32C477,165.84,474.5,170.16,474.5,190.68Z"/><path class="cls-1" d="M589.21,214.44l7.68,9.6v.24h-44.4V224l7.68-9.6c1-1.2,1.08-1.44,1.08-3.48V142.44h-2.88c-1.92,0-2.4.24-3.24,1.8L538,175.2h-.25V139.92h73.92V175.2h-.24l-17.16-31c-.84-1.56-1.32-1.8-3.24-1.8h-2.88V211C588.13,213,588.25,213.24,589.21,214.44Z"/><path class="cls-1" d="M645.85,215.16a3.66,3.66,0,0,0,1,3l4.68,5.88v.24h-35.4V224l4.56-5.88a3.66,3.66,0,0,0,1-3V173.64a3.66,3.66,0,0,0-1-3l-4.56-6v-.24h29.76Zm-23.28-66c0-6.6,5.28-10.44,11.16-10.44,6.12,0,11.16,3.84,11.16,10.44,0,6.36-5,10-11.16,10C627.85,159.12,622.57,155.52,622.57,149.16Z"/><path class="cls-1" d="M725.05,218.16l4.68,5.88v.24H694.21V224l4.56-5.88a3.66,3.66,0,0,0,1-3c0-2.4.36-17.4.36-23.64,0-8.76-1-16.56-8.52-16.56a8.47,8.47,0,0,0-6.84,3.36v36.84a3.66,3.66,0,0,0,1,3l4.68,5.88v.24H655V224l4.56-5.88a3.66,3.66,0,0,0,1-3V173.64a3.66,3.66,0,0,0-1-3l-4.56-6v-.24h29.76v12.12c3-7.32,9.36-13.08,19.8-13.08,9.24,0,15.48,4.92,18.24,13.8a22.84,22.84,0,0,1,20.88-13.8c13,0,19.92,9.48,19.92,26,0,8.28-.24,16.2-.36,25.68a3.66,3.66,0,0,0,1,3l4.68,5.88v.24H733.33V224l4.56-5.88a3.66,3.66,0,0,0,1-3c0-2.4.36-17.4.36-23.64,0-8.76-1-16.56-8.52-16.56-2.88,0-5.64,1.8-7.56,3.6a43.21,43.21,0,0,1,1.32,10.92c0,8.28-.24,16.2-.36,25.68A3.66,3.66,0,0,0,725.05,218.16Z"/><path class="cls-1" d="M796.21,193c.48,14,8.28,18.72,17,18.72,6.48,0,13.92-2.88,17.64-9.24l.24.12c-3.36,15.6-13.44,22.68-28.32,22.68-16.2,0-31.8-9.24-31.8-30.6,0-21.84,14.28-31.2,32.76-31.2,13.32,0,28.2,5.52,28.2,27a19.48,19.48,0,0,1-.12,2.52Zm0-2.28h13.56c.12-1.92.12-3.84.12-5.52,0-17-3.24-19.32-6.6-19.32C798.73,165.84,796.21,170.16,796.21,190.68Z"/><path class="cls-2" d="M851.65,204.72c5.88,0,10.8,4.08,10.8,10.44,0,6.12-4.92,10.08-10.8,10.08s-10.8-4-10.8-10.08C840.85,208.8,845.89,204.72,851.65,204.72Z"/><g id="symbol"><path class="cls-2" d="M63.16,36.55a102.16,102.16,0,0,1,18.34-8L71.69,6a10,10,0,1,0-18.34,8Z"/><path class="cls-2" d="M173.42,240l-9.84-22.63a103,103,0,0,1-18.35,8L155.08,248a10,10,0,0,0,18.34-8Z"/><path class="cls-3" d="M113.39,240.32A113.39,113.39,0,1,1,158.61,22.94a10,10,0,1,1-8,18.34,93.38,93.38,0,1,0,0,171.32,10,10,0,1,1,8,18.33A112.6,112.6,0,0,1,113.39,240.32Z"/><path class="cls-1" d="M113.39,136.94a10,10,0,0,1-10-10V78.75a10,10,0,0,1,20,0v48.19A10,10,0,0,1,113.39,136.94Z"/><path class="cls-2" d="M113.39,136.94a10,10,0,0,1-9.18-6L77.83,70.26a10,10,0,0,1,18.35-8L122.56,123a10,10,0,0,1-5.19,13.16A9.87,9.87,0,0,1,113.39,136.94Z"/></g></svg>