<?xml version="1.0" encoding="UTF-8" standalone="no"?>
<!-- Created with Inkscape (http://www.inkscape.org/) -->

<svg
   width="512"
   height="256"
   viewBox="0 0 135.46666 67.733335"
   version="1.1"
   id="svg5"
   sodipodi:docname="daou.svg"
   inkscape:version="1.1 (c68e22c387, 2021-05-23)"
   xmlns:inkscape="http://www.inkscape.org/namespaces/inkscape"
   xmlns:sodipodi="http://sodipodi.sourceforge.net/DTD/sodipodi-0.dtd"
   xmlns="http://www.w3.org/2000/svg"
   xmlns:svg="http://www.w3.org/2000/svg">
  <sodipodi:namedview
     id="namedview11"
     pagecolor="#505050"
     bordercolor="#eeeeee"
     borderopacity="1"
     inkscape:pageshadow="0"
     inkscape:pageopacity="0"
     inkscape:pagecheckerboard="0"
     showgrid="false"
     inkscape:zoom="1.7539563"
     inkscape:cx="283.64447"
     inkscape:cy="188.43115"
     inkscape:window-width="2400"
     inkscape:window-height="1321"
     inkscape:window-x="-9"
     inkscape:window-y="1341"
     inkscape:window-maximized="1"
     inkscape:current-layer="layer1" />
  <defs
     id="defs2" />
  <g
     id="layer1"
     style="fill:#ffffff;fill-opacity:1">
    <g
       aria-label="Daou"
       id="text4060"
       style="font-weight:bold;font-size:45.2539px;line-height:1.25;font-family:Montserrat;-inkscape-font-specification:'Montserrat Bold';stroke-width:0.264582">
      <path
         d="m 22.275243,9.2174966 q 8.462479,0 12.987869,4.1633584 4.52539,4.118105 4.52539,11.494491 0,7.376385 -4.434882,11.675505 -4.389628,4.299121 -13.440408,4.299121 H 11.09753 V 9.2174966 Z m 0.362032,25.3874374 q 4.842167,0 7.421639,-2.443711 2.624726,-2.44371 2.624726,-7.104862 0,-4.661151 -2.624726,-7.150116 -2.579472,-2.534218 -7.964686,-2.534218 h -3.937089 v 19.232907 z"
         id="path3986" />
      <path
         d="m 65.583099,40.849972 h -6.3808 v -2.941504 q -2.624726,3.303535 -6.516561,3.303535 -3.846582,0 -6.471308,-2.217441 -2.624726,-2.262695 -2.624726,-5.973515 0,-3.756073 2.715234,-5.611483 2.715234,-1.85541 7.421639,-1.85541 h 5.068437 v -0.135762 q 0,-3.891835 -4.118105,-3.891835 -1.764902,0 -3.756073,0.724062 -1.945918,0.678809 -3.303535,1.719649 L 44.58529,19.580639 q 4.796913,-3.48455 10.951443,-3.48455 4.434882,0 7.240624,2.217441 2.805742,2.217441 2.805742,7.014355 z M 58.74976,31.572923 v -1.176602 h -4.253867 q -4.07285,0 -4.07285,2.534219 0,1.312363 0.950331,2.036425 0.995586,0.678808 2.805742,0.678808 1.810156,0 3.167773,-1.086093 1.402871,-1.131348 1.402871,-2.986757 z"
         id="path3988" />
      <path
         d="m 77.213345,28.676673 q 0,2.986757 1.674394,4.887421 1.719648,1.85541 4.344374,1.85541 2.66998,0 4.344374,-1.85541 1.719649,-1.900664 1.719649,-4.887421 0,-2.986757 -1.719649,-4.887421 -1.674394,-1.900664 -4.344374,-1.900664 -2.624726,0 -4.344374,1.900664 -1.674394,1.900664 -1.674394,4.887421 z m 18.916129,0 q 0,5.294706 -3.665566,8.915018 -3.665565,3.620312 -9.231795,3.620312 -5.520976,0 -9.186541,-3.620312 -3.665566,-3.620312 -3.665566,-8.915018 0,-5.294706 3.665566,-8.915018 3.665565,-3.665566 9.186541,-3.665566 5.56623,0 9.231795,3.665566 3.665566,3.620312 3.665566,8.915018 z"
         id="path3990" />
      <path
         d="M 116.85568,29.627005 V 16.503374 h 6.83334 v 24.346598 h -6.83334 v -3.213027 q -2.53422,3.575058 -6.56181,3.575058 -3.98235,0 -6.69758,-2.488964 -2.71524,-2.534219 -2.71524,-7.466894 V 16.503374 h 6.83334 v 13.259393 q 0,5.611483 4.11811,5.611483 2.03642,0 3.5298,-1.448125 1.49338,-1.493378 1.49338,-4.29912 z"
         id="path3992" />
    </g>
    <g
       aria-label="Animation"
       id="text8830"
       style="font-weight:bold;font-size:21.5194px;line-height:1.25;font-family:monospace;-inkscape-font-specification:'monospace Bold';stroke-width:0.264582">
      <path
         d="M 19.530006,56.614455 H 14.29725 l -0.525377,1.313443 h 0.525377 q 0.777558,0 1.103292,0.304718 0.336241,0.294211 0.336241,0.777558 0,0.47284 -0.336241,0.777558 -0.325734,0.294212 -1.103292,0.294212 h -2.900081 q -0.777558,0 -1.103292,-0.294212 -0.3362411,-0.304718 -0.3362411,-0.788065 0,-0.483347 0.3467491,-0.788066 0.346749,-0.304718 1.145322,-0.283703 l 3.383428,-8.427048 h -1.408011 q -0.777558,0 -1.113799,-0.294211 -0.325734,-0.304719 -0.325734,-0.788066 0,-0.483347 0.325734,-0.777558 0.336241,-0.304718 1.113799,-0.304718 l 4.654841,0.01051 4.287077,10.581094 q 0.756543,0 0.998216,0.16812 0.483347,0.346749 0.483347,0.914156 0,0.47284 -0.325734,0.777558 -0.325734,0.294212 -1.103292,0.294212 h -2.900081 q -0.777558,0 -1.113799,-0.294212 -0.325734,-0.304718 -0.325734,-0.788065 0,-0.47284 0.325734,-0.767051 0.336241,-0.304718 1.113799,-0.304718 h 0.525377 z m -0.893141,-2.154046 -1.733745,-4.266061 -1.744251,4.266061 z"
         id="path3967" />
      <path
         d="m 27.63132,50.541096 v 0.725021 q 0.588422,-0.504362 1.292427,-0.756543 0.714513,-0.252181 1.544609,-0.252181 1.912372,0 3.026171,1.187352 0.882634,0.945679 0.882634,2.47978 v 4.003373 q 0.68299,0 1.008724,0.304718 0.325734,0.294211 0.325734,0.777558 0,0.47284 -0.336242,0.777558 -0.325733,0.294212 -1.103291,0.294212 H 32.32819 q -0.777558,0 -1.113799,-0.294212 -0.325734,-0.304718 -0.325734,-0.788065 0,-0.47284 0.325734,-0.767051 0.325734,-0.304718 1.008724,-0.304718 v -4.066419 q 0,-0.704005 -0.378271,-1.029739 -0.493855,-0.420301 -1.481564,-0.420301 -0.746035,0 -1.313442,0.294211 -0.5569,0.283703 -1.418518,1.218875 v 4.003373 q 0.830095,0 1.071769,0.157613 0.514869,0.315226 0.514869,0.924663 0,0.47284 -0.336241,0.777558 -0.325734,0.294212 -1.103292,0.294212 h -2.448257 q -0.777558,0 -1.113799,-0.294212 -0.325734,-0.304718 -0.325734,-0.788065 0,-0.588422 0.504362,-0.914156 0.252181,-0.157613 1.082277,-0.157613 v -5.232756 q -0.68299,0 -1.008724,-0.304718 -0.325734,-0.304719 -0.325734,-0.777558 0,-0.47284 0.325734,-0.767051 0.336241,-0.304719 1.113799,-0.304719 z"
         id="path3969" />
      <path
         d="m 43.497707,46.453663 v 2.280136 h -2.56384 v -2.280136 z m 0.294211,4.087433 v 7.386802 h 2.584855 q 0.777558,0 1.103291,0.304718 0.336242,0.294211 0.336242,0.777558 0,0.47284 -0.336242,0.777558 -0.325733,0.294212 -1.103291,0.294212 h -7.323756 q -0.777558,0 -1.1138,-0.294212 -0.325733,-0.304718 -0.325733,-0.788065 0,-0.47284 0.325733,-0.767051 0.336242,-0.304718 1.1138,-0.304718 h 2.584855 v -5.232756 h -1.733744 q -0.767051,0 -1.103292,-0.294211 -0.336242,-0.304718 -0.336242,-0.788065 0,-0.47284 0.325734,-0.767051 0.336242,-0.304719 1.1138,-0.304719 z"
         id="path3971" />
      <path
         d="m 52.313532,50.541096 v 0.609438 q 0.525377,-0.51487 0.945679,-0.704005 0.430809,-0.199644 0.987709,-0.199644 0.472839,0 0.935171,0.231166 0.462332,0.231166 0.903649,0.693498 0.556899,-0.462332 1.124306,-0.68299 0.577915,-0.231166 1.176845,-0.231166 1.19786,0 1.943895,0.64096 0.987709,0.840603 0.987709,2.206583 v 4.822962 q 0.672483,0 0.998216,0.304718 0.325734,0.304719 0.325734,0.777558 0,0.47284 -0.325734,0.777558 -0.325733,0.294212 -1.103292,0.294212 h -2.04897 v -6.798379 q 0,-0.493855 -0.178628,-0.682991 -0.178628,-0.189135 -0.546392,-0.189135 -0.357257,0 -0.661975,0.189135 -0.388779,0.262689 -0.945679,0.987709 v 4.339615 q 0.672483,0 0.998216,0.304718 0.325734,0.304719 0.325734,0.777558 0,0.47284 -0.325734,0.777558 -0.325733,0.294212 -1.103291,0.294212 h -2.048971 v -6.798379 q 0,-0.483347 -0.189136,-0.672483 -0.178628,-0.199643 -0.546392,-0.199643 -0.378271,0 -0.746035,0.241673 -0.367764,0.231166 -0.882634,0.935171 v 4.339615 q 0.672483,0 0.998217,0.304718 0.336241,0.304719 0.336241,0.777558 0,0.47284 -0.336241,0.777558 -0.325734,0.294212 -1.103292,0.294212 h -1.943895 q -0.777558,0 -1.103292,-0.294212 -0.336241,-0.304718 -0.336241,-0.788065 0,-0.47284 0.325734,-0.767051 0.325733,-0.304718 1.008724,-0.304718 v -5.232756 q -0.682991,0 -1.008724,-0.304718 -0.325734,-0.304719 -0.325734,-0.777558 0,-0.47284 0.336241,-0.767051 0.325734,-0.304719 1.103292,-0.304719 z"
         id="path3973" />
      <path
         d="m 70.491579,60.081944 v -0.504362 q -0.80908,0.430809 -1.786282,0.64096 -0.977201,0.220658 -1.775774,0.220658 -1.733744,0 -2.816021,-0.914156 -1.082277,-0.924664 -1.082277,-2.038463 0,-1.355473 1.376488,-2.511302 1.386995,-1.166337 3.824745,-1.166337 0.977201,0 2.259121,0.21015 v -0.514869 q 0,-0.483347 -0.420301,-0.788066 -0.409795,-0.304718 -1.576132,-0.304718 -0.956186,0 -2.479779,0.378271 -0.567407,0.136598 -0.882634,0.136598 -0.430809,0 -0.735527,-0.304718 -0.294212,-0.315227 -0.294212,-0.798574 0,-0.273196 0.105076,-0.472839 0.105075,-0.199643 0.294211,-0.315226 0.189136,-0.126091 0.788065,-0.294211 0.798574,-0.220659 1.628669,-0.346749 0.830096,-0.136598 1.502579,-0.136598 2.00694,0 3.110232,0.872126 1.113799,0.861618 1.113799,2.364196 v 4.434183 h 0.367764 q 0.777558,0 1.103292,0.304718 0.336241,0.294211 0.336241,0.777558 0,0.47284 -0.336241,0.777558 -0.325734,0.294212 -1.103292,0.294212 z m 0,-3.856268 q -1.292427,-0.252181 -2.385212,-0.252181 -1.313442,0 -2.259121,0.64096 -0.588422,0.409794 -0.588422,0.830096 0,0.304718 0.283703,0.493854 0.525377,0.346749 1.439534,0.346749 0.777558,0 1.754759,-0.304719 0.987709,-0.304718 1.754759,-0.830095 z"
         id="path3975" />
      <path
         d="m 80.936076,52.695142 v 4.3186 q 0,0.693497 0.283703,0.914156 0.441317,0.346748 1.576132,0.346748 1.649683,0 3.047186,-0.704005 0.535885,-0.273196 0.840604,-0.273196 0.420301,0 0.72502,0.315226 0.315226,0.315227 0.315226,0.767051 0,0.420302 -0.336241,0.72502 -0.51487,0.493855 -2.038463,0.914156 -1.513086,0.409794 -2.553332,0.409794 -2.006941,0 -3.015665,-0.861618 -0.998216,-0.872126 -0.998216,-2.133031 v -4.738901 h -0.777558 q -0.777558,0 -1.113799,-0.294211 -0.325734,-0.304718 -0.325734,-0.788065 0,-0.47284 0.325734,-0.767051 0.336241,-0.304719 1.113799,-0.304719 h 0.777558 v -1.943895 q 0,-0.777558 0.294211,-1.103291 0.304719,-0.336242 0.788066,-0.336242 0.472839,0 0.76705,0.336242 0.304719,0.325733 0.304719,1.103291 v 1.943895 h 3.982358 q 0.777558,0 1.103292,0.304719 0.336241,0.294211 0.336241,0.777558 0,0.47284 -0.336241,0.777558 -0.325734,0.294211 -1.103292,0.294211 z"
         id="path3977" />
      <path
         d="m 95.152776,46.453663 v 2.280136 h -2.56384 v -2.280136 z m 0.294211,4.087433 v 7.386802 h 2.584855 q 0.777558,0 1.103292,0.304718 0.336241,0.294211 0.336241,0.777558 0,0.47284 -0.336241,0.777558 -0.325734,0.294212 -1.103292,0.294212 h -7.323756 q -0.777558,0 -1.113799,-0.294212 -0.325734,-0.304718 -0.325734,-0.788065 0,-0.47284 0.325734,-0.767051 0.336241,-0.304718 1.113799,-0.304718 h 2.584855 v -5.232756 h -1.733744 q -0.767051,0 -1.103292,-0.294211 -0.336241,-0.304718 -0.336241,-0.788065 0,-0.47284 0.325734,-0.767051 0.336241,-0.304719 1.113799,-0.304719 z"
         id="path3979" />
      <path
         d="m 112.88951,55.490148 q 0,1.23989 -0.6935,2.406227 -0.68299,1.15583 -2.04897,1.849327 -1.35547,0.68299 -2.83703,0.68299 -1.47106,0 -2.81603,-0.672482 -1.34496,-0.68299 -2.04897,-1.849327 -0.704,-1.166337 -0.704,-2.43775 0,-1.292427 0.71451,-2.532317 0.71451,-1.250398 2.04897,-1.96491 1.34497,-0.714513 2.80552,-0.714513 1.47105,0 2.82652,0.735528 1.36598,0.72502 2.05948,1.96491 0.6935,1.229382 0.6935,2.532317 z m -2.15405,0.01051 q 0,-1.040247 -0.74603,-1.912373 -1.01923,-1.176844 -2.67942,-1.176844 -1.46055,0 -2.43775,0.935171 -0.97721,0.935171 -0.97721,2.164553 0,1.008724 0.98771,1.891358 0.98771,0.872125 2.42725,0.872125 1.45004,0 2.43774,-0.872125 0.98771,-0.882634 0.98771,-1.901865 z"
         id="path3981" />
      <path
         d="m 118.02769,50.541096 v 0.725021 q 0.58843,-0.504362 1.29243,-0.756543 0.71451,-0.252181 1.54461,-0.252181 1.91237,0 3.02617,1.187352 0.88264,0.945679 0.88264,2.47978 v 4.003373 q 0.68299,0 1.00872,0.304718 0.32573,0.294211 0.32573,0.777558 0,0.47284 -0.33624,0.777558 -0.32573,0.294212 -1.10329,0.294212 h -1.94389 q -0.77756,0 -1.1138,-0.294212 -0.32574,-0.304718 -0.32574,-0.788065 0,-0.47284 0.32574,-0.767051 0.32573,-0.304718 1.00872,-0.304718 v -4.066419 q 0,-0.704005 -0.37827,-1.029739 -0.49386,-0.420301 -1.48156,-0.420301 -0.74604,0 -1.31345,0.294211 -0.5569,0.283703 -1.41852,1.218875 v 4.003373 q 0.8301,0 1.07177,0.157613 0.51487,0.315226 0.51487,0.924663 0,0.47284 -0.33624,0.777558 -0.32573,0.294212 -1.10329,0.294212 h -2.44826 q -0.77756,0 -1.1138,-0.294212 -0.32573,-0.304718 -0.32573,-0.788065 0,-0.588422 0.50436,-0.914156 0.25218,-0.157613 1.08228,-0.157613 v -5.232756 q -0.68299,0 -1.00873,-0.304718 -0.32573,-0.304719 -0.32573,-0.777558 0,-0.47284 0.32573,-0.767051 0.33625,-0.304719 1.1138,-0.304719 z"
         id="path3983" />
    </g>
    <g
       aria-label="2022"
       id="text15450"
       style="font-weight:bold;font-size:9.19218px;line-height:1.25;font-family:monospace;-inkscape-font-specification:'monospace Bold';stroke-width:0.264582">
      <path
         d="m 111.80367,9.1401728 q 1.48913,-1.020332 2.38077,-1.994703 0.90084,-0.9835633 0.90084,-1.8200516 0,-0.4963777 -0.24819,-0.7905275 -0.239,-0.2941497 -0.78134,-0.2941497 -0.56072,0 -0.84568,0.3676872 -0.28496,0.358495 -0.32172,1.0295241 h -1.02034 q 0.0644,-1.1122537 0.68023,-1.7005532 0.62506,-0.5882995 1.59024,-0.5882995 0.9468,0 1.47994,0.5055698 0.54234,0.4963777 0.54234,1.378827 0,0.7077978 -0.44122,1.43398 -0.43203,0.7261822 -1.10306,1.3420583 -0.67103,0.6066838 -1.38802,1.0479084 h 3.07938 v 0.8548728 h -4.50417 z"
         style="font-family:Poppins;-inkscape-font-specification:'Poppins Bold'"
         id="path3958" />
      <path
         d="m 117.12594,6.6674764 q 0,1.5534784 0.55153,2.4359276 0.55153,0.8732571 1.83843,0.8732571 1.28691,0 1.83844,-0.8824492 0.55153,-0.8824493 0.55153,-2.4267355 0,-1.535094 -0.55153,-2.4083511 -0.55153,-0.8824492 -1.83844,-0.8824492 -1.2869,0 -1.83843,0.8732571 -0.55153,0.873257 -0.55153,2.4175432 z m 3.73202,0 q 0,1.1214459 -0.27576,1.7189376 -0.27577,0.5974917 -1.0663,0.5974917 -0.79972,0 -1.07548,-0.5974917 -0.27577,-0.5974917 -0.27577,-1.7189376 0,-1.1122537 0.27577,-1.7005532 0.27576,-0.5882995 1.07548,-0.5882995 0.79053,0 1.0663,0.5974917 0.27576,0.5882995 0.27576,1.691361 z"
         style="font-family:Poppins;-inkscape-font-specification:'Poppins Bold'"
         id="path3960" />
      <path
         d="m 122.74235,9.1401728 q 1.48913,-1.020332 2.38077,-1.994703 0.90084,-0.9835633 0.90084,-1.8200516 0,-0.4963777 -0.24819,-0.7905275 -0.239,-0.2941497 -0.78134,-0.2941497 -0.56072,0 -0.84568,0.3676872 -0.28495,0.358495 -0.32172,1.0295241 h -1.02034 q 0.0643,-1.1122537 0.68023,-1.7005532 0.62506,-0.5882995 1.59024,-0.5882995 0.9468,0 1.47994,0.5055698 0.54234,0.4963777 0.54234,1.378827 0,0.7077978 -0.44122,1.43398 -0.43203,0.7261822 -1.10306,1.3420583 -0.67103,0.6066838 -1.38802,1.0479084 h 3.07938 v 0.8548728 h -4.50417 z"
         style="font-family:Poppins;-inkscape-font-specification:'Poppins Bold'"
         id="path3962" />
      <path
         d="m 127.95431,9.1401728 q 1.48913,-1.020332 2.38078,-1.994703 0.90083,-0.9835633 0.90083,-1.8200516 0,-0.4963777 -0.24819,-0.7905275 -0.239,-0.2941497 -0.78133,-0.2941497 -0.56073,0 -0.84569,0.3676872 -0.28495,0.358495 -0.32172,1.0295241 h -1.02033 q 0.0643,-1.1122537 0.68022,-1.7005532 0.62507,-0.5882995 1.59024,-0.5882995 0.9468,0 1.47995,0.5055698 0.54233,0.4963777 0.54233,1.378827 0,0.7077978 -0.44122,1.43398 -0.43203,0.7261822 -1.10306,1.3420583 -0.67103,0.6066838 -1.38802,1.0479084 h 3.07938 v 0.8548728 h -4.50417 z"
         style="font-family:Poppins;-inkscape-font-specification:'Poppins Bold'"
         id="path3964" />
    </g>
  </g>
</svg>
