<?xml version="1.0" encoding="UTF-8"?>
<!-- Generator: Adobe Illustrator 16.0.4, SVG Export Plug-In . SVG Version: 6.00 Build 0)  -->
<!DOCTYPE svg PUBLIC "-//W3C//DTD SVG 1.1//EN" "http://www.w3.org/Graphics/SVG/1.1/DTD/svg11.dtd">
<svg version="1.1" id="Layer_1" xmlns="http://www.w3.org/2000/svg" xmlns:xlink="http://www.w3.org/1999/xlink" x="0px" y="0px" width="84px" height="50px" viewBox="0 0 84 50" enable-background="new 0 0 84 50" xml:space="preserve">
<g>
	<path fill="#231F20" d="M1.521,33.83c0.232,0.359,0.959,1.479,3.001,1.479c0.343,0,0.698-0.027,1.041-0.165   c0.699-0.291,0.822-0.788,0.822-1.12c0-0.622-0.425-0.843-0.727-0.968c-0.219-0.083-0.246-0.097-1.123-0.304l-1.165-0.249   c-0.616-0.152-0.918-0.221-1.22-0.346c-0.438-0.18-1.631-0.773-1.631-2.391c0-1.853,1.549-3.041,3.823-3.041   c1.79,0,2.871,0.765,3.575,1.576l-1.411,1.17c-0.381-0.493-1.032-1.102-2.26-1.102c-0.973,0-1.822,0.442-1.822,1.188   c0,0.83,0.904,0.995,1.781,1.161l1,0.222c1.302,0.276,3.139,0.815,3.139,2.902c0,2.239-2.056,3.138-4.111,3.138   c-0.534,0-1.138-0.056-1.727-0.221C1.863,36.566,0.727,36.097,0,34.908L1.521,33.83z"/>
	<path fill="#231F20" d="M15.309,29.821l-2.505,6.911h-1.805l-2.477-6.911h1.734l1.666,4.755l1.637-4.755H15.309z"/>
	<path fill="#231F20" d="M22.489,35.488c-0.83,0.95-1.871,1.452-3.167,1.452c-1.832,0-3.595-1.147-3.595-3.691   c0-2.321,1.511-3.635,3.483-3.635c1.847,0,2.616,1.092,2.756,1.299c0.573,0.802,0.699,2.005,0.713,2.695h-5.176   c0.196,1.093,0.882,1.715,1.986,1.715c0.86,0,1.335-0.374,1.607-0.683L22.489,35.488z M20.834,32.393   c-0.154-1.078-0.826-1.451-1.567-1.451c-0.896,0-1.511,0.511-1.707,1.451H20.834z"/>
	<path fill="#231F20" d="M78.87,48.549C78.04,49.499,76.999,50,75.703,50c-1.832,0-3.595-1.146-3.595-3.69   c0-2.322,1.511-3.635,3.483-3.635c1.847,0,2.616,1.092,2.756,1.299c0.573,0.802,0.699,2.005,0.713,2.695h-5.176   c0.196,1.092,0.882,1.714,1.986,1.714c0.86,0,1.335-0.373,1.607-0.682L78.87,48.549z M77.214,45.453   c-0.153-1.078-0.825-1.451-1.566-1.451c-0.896,0-1.511,0.511-1.706,1.451H77.214z"/>
	<path fill="#231F20" d="M23.995,29.821h1.692v0.815c0.084-0.124,0.252-0.346,0.546-0.539c0.42-0.304,1.063-0.483,1.608-0.483   c0.798,0,1.483,0.359,1.833,0.829c0.434,0.581,0.434,1.327,0.434,2.226v4.063h-1.665v-3.524c0-0.512,0-0.857-0.056-1.051   c-0.154-0.607-0.602-0.926-1.147-0.926c-0.545,0-1.049,0.318-1.287,0.774c-0.266,0.511-0.266,1.216-0.266,1.728v2.999h-1.692   V29.821z"/>
	<path fill="#231F20" d="M32.454,34.687c0.411,0.512,1.028,0.885,1.974,0.885s1.356-0.47,1.356-0.815   c0-0.442-0.493-0.553-0.712-0.594c-0.233-0.056-1.357-0.263-1.604-0.332c-1.631-0.387-1.933-1.341-1.933-1.963   c0-1.175,1.056-2.253,2.933-2.253c1.042,0,1.796,0.332,2.262,0.663c0.233,0.151,0.409,0.309,0.541,0.445l-1.162,1.012   c-0.257-0.363-0.748-0.793-1.709-0.793c-0.781,0-1.138,0.346-1.138,0.705c0,0.497,0.508,0.636,1.385,0.787   c1.425,0.263,1.822,0.332,2.261,0.678c0.425,0.332,0.699,0.885,0.699,1.465c0,1.078-0.959,2.364-3.084,2.364   c-1.22,0-2.425-0.388-3.288-1.23L32.454,34.687z"/>
	<path fill="#231F20" d="M39.737,47.747c0.411,0.512,1.027,0.885,1.973,0.885s1.356-0.47,1.356-0.815   c0-0.442-0.493-0.553-0.712-0.595c-0.233-0.055-1.356-0.262-1.604-0.331c-1.631-0.388-1.933-1.341-1.933-1.963   c0-1.175,1.056-2.253,2.933-2.253c1.042,0,1.796,0.331,2.262,0.663c0.233,0.151,0.409,0.309,0.541,0.445l-1.162,1.012   c-0.257-0.363-0.748-0.793-1.709-0.793c-0.781,0-1.137,0.345-1.137,0.704c0,0.498,0.507,0.637,1.384,0.788   c1.425,0.263,1.822,0.332,2.261,0.678c0.425,0.331,0.699,0.885,0.699,1.465c0,1.078-0.959,2.363-3.084,2.363   c-1.219,0-2.425-0.387-3.288-1.229L39.737,47.747z"/>
	<path fill="#231F20" d="M40.465,26.974v5.488l2.728-2.641h2.141l-2.672,2.641l2.938,4.271h-2.042l-2.112-3.096l-0.979,0.953v2.143   H38.8v-9.759H40.465z"/>
	<path fill="#231F20" d="M46.353,31.492c0.034-0.209,0.097-0.42,0.24-0.676c0.671-1.202,2.336-1.202,2.783-1.202   c0.672,0,1.483,0.083,2.099,0.442c0.825,0.497,0.84,1.147,0.84,1.894v3.663c0,0.525,0.065,0.88,0.247,1.119h-1.926   c-0.015-0.166-0.043-0.442-0.043-0.539c-0.363,0.305-1.104,0.705-2.07,0.705c-1.58,0-2.531-0.968-2.531-2.156   c0-0.346,0.084-0.663,0.224-0.939c0.504-0.996,1.581-1.217,2.252-1.341c1.441-0.291,1.553-0.318,2.169-0.512   c0-0.346-0.028-1.051-1.189-1.051c-0.699,0-1.077,0.222-1.245,0.442c-0.091,0.11-0.133,0.214-0.152,0.314L46.353,31.492z    M50.636,33.291c-0.336,0.166-0.714,0.29-1.47,0.414c-0.602,0.083-1.398,0.222-1.398,0.954c0,0.539,0.462,0.815,1.133,0.815   c0.854,0,1.455-0.387,1.637-0.802c0.099-0.207,0.099-0.414,0.099-0.622V33.291z"/>
	<path fill="#231F20" d="M2.538,44.18h4.127v1.562H2.538v4.051H0.706v-9.759h6.533v1.632H2.538V44.18z"/>
	<path fill="#231F20" d="M10.304,40.036v1.672H8.64v-1.672H10.304z M10.304,42.882v6.911H8.64v-6.911H10.304z"/>
	<path fill="#231F20" d="M13.761,40.034v9.759h-1.693v-9.759H13.761z"/>
	<path fill="#231F20" d="M15.524,42.882h1.665v0.774c0.56-0.691,1.553-0.981,2.21-0.981s1.483,0.249,1.944,1.064   c0.28-0.388,1.008-1.064,2.238-1.064c0.7,0,1.371,0.193,1.847,0.705c0.56,0.607,0.546,1.341,0.546,2.06v4.354H24.31v-3.814   c0-0.65,0.098-1.742-1.175-1.742c-0.531,0-0.966,0.29-1.189,0.649c-0.321,0.512-0.363,1.064-0.363,1.659v3.248h-1.665v-3.856   c0-0.497,0-0.677-0.056-0.885c-0.126-0.456-0.49-0.815-1.077-0.815c-0.504,0-0.993,0.29-1.287,0.802   c-0.294,0.539-0.308,1.188-0.308,1.866v2.889h-1.665V42.882z"/>
	<path fill="#231F20" d="M29.528,40.036v1.672h-1.665v-1.672H29.528z M29.528,42.882v6.911h-1.665v-6.911H29.528z"/>
	<path fill="#231F20" d="M31.264,42.882h1.693v0.815c0.084-0.124,0.251-0.346,0.545-0.539c0.42-0.304,1.063-0.483,1.609-0.483   c0.797,0,1.481,0.359,1.831,0.829c0.434,0.58,0.434,1.327,0.434,2.226v4.063h-1.663v-3.524c0-0.512,0-0.857-0.057-1.051   c-0.153-0.608-0.602-0.926-1.146-0.926c-0.546,0-1.05,0.317-1.287,0.773c-0.266,0.512-0.266,1.217-0.266,1.729v2.999h-1.693V42.882   z"/>
	<path fill="#231F20" d="M48.237,44.07v3.124c0,0.857,0,1.23,0.798,1.23c0.252,0,0.462-0.014,0.699-0.083v1.396   c-0.504,0.082-0.839,0.11-1.217,0.11c-0.35,0-1.525,0-1.847-0.844c-0.112-0.276-0.112-0.719-0.112-1.409V44.07h-1.021v-1.188h1.021   v-2.038h1.679v2.038h1.497v1.188H48.237z"/>
	<path fill="#231F20" d="M52.771,40.036v1.672h-1.665v-1.672H52.771z M52.771,42.882v6.911h-1.665v-6.911H52.771z"/>
	<path fill="#231F20" d="M56.634,44.07v3.124c0,0.857,0,1.23,0.797,1.23c0.252,0,0.462-0.014,0.7-0.083v1.396   c-0.504,0.082-0.84,0.11-1.218,0.11c-0.35,0-1.524,0-1.846-0.844c-0.112-0.276-0.112-0.719-0.112-1.409V44.07h-1.021v-1.188h1.021   v-2.038h1.679v2.038h1.497v1.188H56.634z"/>
	<path fill="#231F20" d="M65.783,42.882v6.911h-1.679v-0.705c-0.293,0.276-0.979,0.871-2.266,0.871   c-1.147,0-1.693-0.483-1.944-0.802c-0.476-0.595-0.476-1.244-0.476-2.28v-3.995h1.692v3.967c0,0.276,0,0.512,0.056,0.691   c0.182,0.608,0.686,0.871,1.301,0.871c0.7,0,1.134-0.373,1.357-0.733c0.252-0.456,0.266-0.897,0.279-1.865v-2.931H65.783z"/>
	<path fill="#231F20" d="M69.758,44.07v3.124c0,0.857,0,1.23,0.797,1.23c0.252,0,0.462-0.014,0.699-0.083v1.396   c-0.503,0.082-0.839,0.11-1.217,0.11c-0.35,0-1.524,0-1.847-0.844c-0.111-0.276-0.111-0.719-0.111-1.409V44.07h-1.021v-1.188h1.021   v-2.038h1.679v2.038h1.496v1.188H69.758z"/>
	<path fill="#231F20" d="M82.503,44.07v3.124c0,0.857,0,1.23,0.798,1.23c0.252,0,0.461-0.014,0.699-0.083v1.396   c-0.504,0.082-0.839,0.11-1.217,0.11c-0.35,0-1.525,0-1.847-0.844c-0.112-0.276-0.112-0.719-0.112-1.409V44.07h-1.021v-1.188h1.021   v-2.038h1.679v2.038H84v1.188H82.503z"/>
	<rect x="0.537" y="10.204" fill="#231F20" width="9.483" height="13.061"/>
	<rect x="12.128" y="10.204" fill="#231F20" width="18.757" height="13.061"/>
	<ellipse fill="#231F20" cx="5.173" cy="4.286" rx="4.425" ry="4.285"/>
	<ellipse fill="#231F20" cx="16.133" cy="4.286" rx="4.426" ry="4.285"/>
	<ellipse fill="#231F20" cx="27.092" cy="4.286" rx="4.426" ry="4.285"/>
</g>
</svg>