<svg width="175" height="130" viewBox="0 0 175 130" fill="none" xmlns="http://www.w3.org/2000/svg">
<path d="M165 74C120.806 62.1594 98.0463 62.4273 62 77.5L73.1351 97L153.467 95.785L165 74Z" fill="black"/>
<path d="M67.8138 96.2905C79.1203 70.1433 124.145 56.8267 159.554 95.7241L67.8138 96.2905Z" fill="white"/>
<path d="M67.4744 109L62 77.5C100.4 98.7424 122.952 98.2011 165 74L158.512 109H67.4744Z" fill="#2D2D2D"/>
<path d="M118.99 70.0487C133.305 69.0633 142.848 83.3524 121.376 82.8596C104.198 82.4655 96.3253 71.6091 118.99 70.0487Z" fill="#F4E130"/>
<path d="M68 85.4375L1.70603 82C0.0352013 89.5596 1.28639 92.6762 5.92473 97L68 91.6875V85.4375Z" fill="#2D2D2D"/>
<mask id="mask0" style="mask-type:alpha" maskUnits="userSpaceOnUse" x="62" y="74" width="103" height="35">
<path d="M67.4744 109L62 77.677C100.4 98.9195 122.952 98.2011 165 74L158.512 109H67.4744Z" fill="#2D2D2D"/>
</mask>
<g mask="url(#mask0)">
</g>
<path d="M10.083 17.5815C10.083 18.1961 9.96777 18.7819 9.7373 19.3389C9.50684 19.8766 9.18994 20.3472 8.78662 20.7505C8.3833 21.1538 7.90316 21.4803 7.34619 21.73C6.80843 21.9604 6.23226 22.0757 5.61768 22.0757C5.00309 22.0757 4.41732 21.9604 3.86035 21.73C3.32259 21.4803 2.85205 21.1538 2.44873 20.7505C2.04541 20.3472 1.71891 19.8766 1.46924 19.3389C1.23877 18.7819 1.12354 18.1961 1.12354 17.5815C1.12354 16.967 1.23877 16.3908 1.46924 15.853C1.71891 15.2961 2.04541 14.8159 2.44873 14.4126C2.85205 14.0093 3.32259 13.6924 3.86035 13.4619C4.41732 13.2122 5.00309 13.0874 5.61768 13.0874C6.23226 13.0874 6.80843 13.2122 7.34619 13.4619C7.90316 13.6924 8.3833 14.0093 8.78662 14.4126C9.18994 14.8159 9.50684 15.2961 9.7373 15.853C9.96777 16.3908 10.083 16.967 10.083 17.5815ZM10.083 26.3105C9.92936 27.8278 9.79492 29.4699 9.67969 31.2368C9.58366 32.9845 9.49723 34.7803 9.42041 36.624C9.36279 38.4678 9.31478 40.3211 9.27637 42.1841C9.23796 44.047 9.20915 45.8236 9.18994 47.5137C9.17074 49.2038 9.15153 50.7882 9.13232 52.2671C9.13232 53.7267 9.13232 54.9847 9.13232 56.041V59.2964L2.59277 59.5269C2.63118 58.2017 2.65039 56.9149 2.65039 55.6665C2.65039 54.4181 2.65039 53.1698 2.65039 51.9214C2.65039 49.7511 2.63118 47.6385 2.59277 45.5835C2.55436 43.5093 2.48714 41.4351 2.39111 39.3608C2.31429 37.2866 2.20866 35.1836 2.07422 33.0518C1.93978 30.9199 1.77653 28.7113 1.58447 26.4258L10.083 26.3105ZM42.5607 58.7202L34.6383 59.2964C34.8112 56.7612 34.9456 54.4373 35.0416 52.3247C35.1569 50.2121 35.2337 48.3779 35.2721 46.8223C35.3297 45.0169 35.3585 43.3748 35.3585 41.896C35.3585 41.2046 35.3489 40.4268 35.3297 39.5625C35.3105 38.8327 35.2817 37.9588 35.2433 36.9409C35.2241 35.923 35.1857 34.7995 35.128 33.5703C34.6287 35.8942 34.187 37.9012 33.8029 39.5913C33.4379 41.2622 33.1403 42.645 32.9098 43.7397C32.6217 45.0265 32.3912 46.1021 32.2184 46.9663C31.9495 48.1379 31.7094 49.3094 31.4982 50.481C31.3061 51.4797 31.1237 52.5456 30.9508 53.6787C30.7779 54.8118 30.6531 55.8394 30.5763 56.7612L23.2013 56.7036C22.798 54.2069 22.385 51.8158 21.9625 49.5303C21.5592 47.2256 21.1367 45.0073 20.6949 42.8755C20.2724 40.7244 19.8307 38.6406 19.3697 36.624C18.928 34.5882 18.4575 32.5716 17.9581 30.5742C17.8621 32.4948 17.7949 34.2329 17.7565 35.7886C17.7181 37.3442 17.6988 38.6886 17.6988 39.8218C17.6988 43.0868 17.7853 46.1789 17.9581 49.0981C18.131 52.0174 18.3614 54.9079 18.6495 57.7695L10.151 58C10.2854 56.6172 10.4007 55.1287 10.4967 53.5347C10.5927 51.9214 10.6696 50.2985 10.7272 48.666C10.804 47.0143 10.8616 45.401 10.9 43.8262C10.9384 42.2321 10.9672 40.7437 10.9864 39.3608C11.0057 37.978 11.0153 36.7489 11.0153 35.6733C11.0345 34.5978 11.0441 33.7624 11.0441 33.167C11.0441 32.0915 11.0345 30.8623 11.0153 29.4795C11.0153 28.0967 10.996 26.6851 10.9576 25.2446C10.9384 23.785 10.9096 22.3638 10.8712 20.981C10.8328 19.5789 10.7752 18.3306 10.6984 17.2358C11.6202 17.2743 12.4941 17.3031 13.3199 17.3223C14.1458 17.3415 14.9236 17.3511 15.6534 17.3511C17.5164 17.3511 18.9664 17.3223 20.0035 17.2646C20.6181 17.2454 21.1559 17.2166 21.6168 17.1782C21.8857 19.6174 22.1738 21.9989 22.4811 24.3228C22.8076 26.6274 23.1629 28.8937 23.547 31.1216C23.9311 33.3494 24.344 35.5581 24.7858 37.7476C25.2467 39.9178 25.7364 42.0881 26.255 44.2583C26.9464 41.8192 27.609 39.4281 28.2428 37.085C28.8766 34.7419 29.4528 32.4276 29.9713 30.1421C30.4899 27.8566 30.9412 25.5903 31.3253 23.3433C31.7094 21.0962 32.0071 18.8587 32.2184 16.6309C32.929 16.6693 33.5916 16.6981 34.2062 16.7173C34.8208 16.7365 35.3969 16.7461 35.9347 16.7461C37.0294 16.7461 37.9513 16.7269 38.7003 16.6885C39.4685 16.6501 40.1023 16.6021 40.6017 16.5444C41.1779 16.4868 41.6484 16.4196 42.0133 16.3428C41.8597 18.3594 41.7348 20.3568 41.6388 22.335C41.5428 24.3132 41.4659 26.1953 41.4083 27.9814C41.3699 29.7676 41.3411 31.4097 41.3219 32.9077C41.3219 34.3866 41.3219 35.6349 41.3219 36.6528C41.3219 37.0754 41.3219 37.7284 41.3219 38.6118C41.3411 39.4953 41.3699 40.542 41.4083 41.752C41.4467 42.9427 41.4947 44.2487 41.5524 45.6699C41.61 47.0911 41.6772 48.5508 41.754 50.0488C41.8501 51.5469 41.9653 53.0353 42.0997 54.5142C42.2342 55.993 42.3878 57.395 42.5607 58.7202ZM75.1351 48.0898C74.9431 50.2601 74.4437 52.0654 73.6371 53.5059C72.8496 54.9271 71.8797 56.0698 70.7274 56.9341C69.5751 57.7791 68.2979 58.3745 66.8959 58.7202C65.513 59.0659 64.1302 59.2388 62.7474 59.2388C61.307 59.2388 59.9146 59.0371 58.5702 58.6338C57.245 58.2497 56.0734 57.6639 55.0555 56.8765C54.0376 56.089 53.2214 55.0999 52.6068 53.9092C52.0114 52.7184 51.7137 51.326 51.7137 49.7319C51.7137 48.5028 51.8962 47.4753 52.2611 46.6494C52.6452 45.8236 53.1157 45.161 53.6727 44.6616C54.2297 44.1623 54.8251 43.8166 55.4588 43.6245C56.0926 43.4132 56.6784 43.3076 57.2162 43.3076C57.7731 43.3076 58.3493 43.394 58.9447 43.5669C59.5401 43.7397 60.0874 44.0278 60.5868 44.4312C61.0861 44.8345 61.4894 45.3818 61.7967 46.0732C62.1232 46.7454 62.2865 47.5905 62.2865 48.6084C62.2865 48.6276 62.2673 48.8101 62.2289 49.1558C62.2097 49.4823 62.104 49.8664 61.912 50.3081C61.7199 50.7306 61.4222 51.1532 61.0189 51.5757C60.6348 51.979 60.0682 52.2671 59.3192 52.4399C59.857 53.1121 60.4811 53.6211 61.1918 53.9668C61.9216 54.2933 62.5362 54.4565 63.0355 54.4565C63.5349 54.4565 64.1014 54.3701 64.7352 54.1973C65.3882 54.0244 65.9932 53.7363 66.5502 53.333C67.1263 52.9105 67.6065 52.3631 67.9906 51.6909C68.3939 50.9995 68.5956 50.1353 68.5956 49.0981C68.5956 47.8882 68.3843 46.8127 67.9618 45.8716C67.5585 44.9305 67.0303 44.1047 66.3773 43.394C65.7435 42.6642 65.0233 42.0304 64.2167 41.4927C63.4292 40.9357 62.661 40.4364 61.912 39.9946C61.4126 39.7065 60.8172 39.3704 60.1258 38.9863C59.4344 38.583 58.7142 38.1125 57.9652 37.5747C57.2162 37.0177 56.4768 36.3936 55.7469 35.7021C55.0171 34.9915 54.3545 34.1945 53.7591 33.311C53.183 32.4084 52.7124 31.4097 52.3475 30.3149C52.0018 29.2202 51.829 28.0103 51.829 26.6851C51.829 24.7069 52.1747 22.9784 52.8661 21.4995C53.5575 20.0015 54.4505 18.7531 55.5453 17.7544C56.6592 16.7557 57.9172 16.0067 59.3192 15.5073C60.7212 15.008 62.1424 14.7583 63.5829 14.7583C65.0233 14.7583 66.3965 14.96 67.7025 15.3633C69.0085 15.7474 70.1512 16.314 71.1307 17.063C72.1294 17.7928 72.9169 18.6763 73.493 19.7134C74.0884 20.7313 74.3861 21.874 74.3861 23.1416C74.3861 24.4284 74.1748 25.4463 73.7523 26.1953C73.3298 26.9443 72.8208 27.5109 72.2254 27.895C71.6493 28.2791 71.0539 28.5288 70.4393 28.644C69.8439 28.7401 69.3638 28.7881 68.9989 28.7881C68.5379 28.7881 68.0578 28.7017 67.5585 28.5288C67.0591 28.356 66.5982 28.0967 66.1756 27.751C65.7723 27.4053 65.4362 26.9827 65.1673 26.4834C64.8985 25.984 64.764 25.3983 64.764 24.7261C64.7832 24.3035 64.8312 23.881 64.9081 23.4585C64.9849 23.0936 65.1001 22.6999 65.2538 22.2773C65.4074 21.8548 65.6379 21.4515 65.9452 21.0674C65.6379 20.7985 65.3402 20.5872 65.0521 20.4336C64.764 20.2799 64.4951 20.1647 64.2455 20.0879C63.9574 20.0111 63.6789 19.9631 63.41 19.9438C62.8723 19.9438 62.3249 20.0399 61.7679 20.2319C61.2302 20.424 60.7308 20.7121 60.2699 21.0962C59.8282 21.4803 59.4632 21.9701 59.1752 22.5654C58.8871 23.1416 58.743 23.8234 58.743 24.6108C58.743 25.5327 58.8871 26.3682 59.1752 27.1172C59.4632 27.847 59.9146 28.5576 60.5292 29.249C61.1437 29.9404 61.9216 30.6414 62.8627 31.3521C63.8229 32.0627 64.9657 32.8405 66.2909 33.6855C67.8465 34.665 69.1813 35.6445 70.2953 36.624C71.4284 37.6035 72.3503 38.6118 73.0609 39.6489C73.7907 40.686 74.3285 41.7808 74.6742 42.9331C75.0199 44.0662 75.1927 45.2954 75.1927 46.6206C75.1927 46.8511 75.1927 47.0911 75.1927 47.3408C75.1927 47.5713 75.1735 47.821 75.1351 48.0898ZM101.361 37.3442C101.361 40.4172 101.073 43.298 100.497 45.9868C99.9209 48.6756 99.0662 51.0283 97.9331 53.0449C96.8 55.0423 95.3883 56.6268 93.6982 57.7983C92.0273 58.9507 90.0972 59.5269 87.9077 59.5269C85.6798 59.5269 83.7209 58.9507 82.0307 57.7983C80.3598 56.6268 78.9578 55.0423 77.8247 53.0449C76.7108 51.0283 75.8657 48.6756 75.2895 45.9868C74.7326 43.298 74.4541 40.4172 74.4541 37.3442C74.4541 34.2905 74.723 31.4193 75.2607 28.7305C75.8177 26.0417 76.6531 23.6986 77.7671 21.7012C78.881 19.7038 80.283 18.1289 81.9731 16.9766C83.6632 15.805 85.6414 15.2192 87.9077 15.2192C90.2508 15.2192 92.2674 15.805 93.9575 16.9766C95.6668 18.1289 97.0688 19.7038 98.1636 21.7012C99.2583 23.6986 100.065 26.0417 100.583 28.7305C101.102 31.4193 101.361 34.2905 101.361 37.3442ZM93.8135 37.3442C93.8135 34.9627 93.7174 32.7253 93.5254 30.6318C93.3333 28.5192 93.0068 26.6851 92.5459 25.1294C92.1042 23.5545 91.4992 22.3158 90.7309 21.4131C89.9819 20.5104 89.0408 20.0591 87.9077 20.0591C86.813 20.0591 85.8911 20.5104 85.1421 21.4131C84.3931 22.3158 83.7881 23.5545 83.3271 25.1294C82.8662 26.6851 82.5301 28.5192 82.3188 30.6318C82.1076 32.7253 82.0019 34.9627 82.0019 37.3442C82.0019 39.745 82.1076 42.0016 82.3188 44.1143C82.5301 46.2077 82.8662 48.0418 83.3271 49.6167C83.8073 51.1724 84.4219 52.4111 85.1709 53.333C85.9199 54.2357 86.8322 54.687 87.9077 54.687C88.964 54.687 89.8667 54.2357 90.6157 53.333C91.3647 52.4111 91.9793 51.1724 92.4595 49.6167C92.9396 48.0418 93.2853 46.2077 93.4966 44.1143C93.7078 42.0016 93.8135 39.745 93.8135 37.3442ZM119.175 58.5186C118.772 57.9616 118.465 57.3374 118.254 56.646C118.061 55.9546 117.917 55.3016 117.821 54.687C117.725 54.0532 117.668 53.5059 117.649 53.0449C117.649 52.584 117.649 52.3055 117.649 52.2095C117.649 51.5949 117.62 50.8651 117.562 50.02C117.524 49.1558 117.418 48.2723 117.245 47.3696C117.072 46.4478 116.823 45.5451 116.496 44.6616C116.189 43.759 115.757 42.9523 115.2 42.2417C114.662 41.5311 113.99 40.9645 113.183 40.542C112.396 40.1003 111.445 39.8794 110.331 39.8794C110.178 39.8794 110.014 39.889 109.841 39.9082C109.688 39.9274 109.534 39.937 109.38 39.937V57.8848L101.429 58.0576C101.545 57.3854 101.641 56.598 101.717 55.6953C101.813 54.7734 101.89 53.8035 101.948 52.7856C102.005 51.7485 102.053 50.673 102.092 49.5591C102.13 48.4451 102.159 47.3504 102.178 46.2749C102.198 45.1994 102.207 44.1623 102.207 43.1636C102.226 42.1457 102.236 41.2334 102.236 40.4268C102.236 39.8122 102.226 38.9095 102.207 37.7188C102.207 36.528 102.188 35.1932 102.15 33.7144C102.13 32.2163 102.101 30.651 102.063 29.0186C102.044 27.3669 102.015 25.792 101.977 24.2939C101.938 22.7767 101.89 21.4035 101.833 20.1743C101.794 18.9259 101.756 17.9657 101.717 17.2935C102.774 17.0822 103.907 16.9285 105.117 16.8325C106.327 16.7173 107.45 16.6309 108.487 16.5732C109.697 16.4964 110.898 16.458 112.088 16.458C114.009 16.3812 115.814 16.5444 117.504 16.9478C119.195 17.3319 120.673 17.9945 121.941 18.9355C123.228 19.8574 124.246 21.0578 124.995 22.5366C125.763 23.9963 126.166 25.744 126.205 27.7798C125.897 29.2202 125.408 30.555 124.735 31.7842C124.447 32.3027 124.102 32.8405 123.698 33.3975C123.314 33.9352 122.853 34.4442 122.316 34.9243C121.797 35.4045 121.202 35.8462 120.529 36.2495C119.857 36.6336 119.108 36.9409 118.282 37.1714C119.511 37.6515 120.51 38.2181 121.278 38.8711C122.047 39.5049 122.652 40.2251 123.093 41.0317C123.535 41.8192 123.852 42.6738 124.044 43.5957C124.255 44.4984 124.399 45.4587 124.476 46.4766C124.572 47.4753 124.649 48.5124 124.707 49.5879C124.764 50.6442 124.87 51.7197 125.024 52.8145C125.177 53.6403 125.369 54.4277 125.6 55.1768C125.811 55.8298 126.07 56.4924 126.378 57.1646C126.704 57.8175 127.098 58.3553 127.559 58.7778L119.175 58.5186ZM118.887 28.1543C118.868 26.9251 118.599 25.8208 118.081 24.8413C117.85 24.438 117.553 24.0347 117.188 23.6313C116.842 23.228 116.4 22.8727 115.862 22.5654C115.344 22.2581 114.71 22.0085 113.961 21.8164C113.231 21.6243 112.377 21.5283 111.397 21.5283C110.648 21.5283 109.822 21.634 108.92 21.8452L109.035 34.8667C109.38 34.9243 109.726 34.9723 110.072 35.0107C110.418 35.0299 110.734 35.0396 111.023 35.0396C111.944 35.0396 112.761 34.9435 113.471 34.7515C114.182 34.5594 114.806 34.3001 115.344 33.9736C115.882 33.6471 116.343 33.2822 116.727 32.8789C117.111 32.4756 117.437 32.0531 117.706 31.6113C118.321 30.5934 118.714 29.4411 118.887 28.1543ZM143.932 58.5186C143.529 57.9616 143.222 57.3374 143.01 56.646C142.818 55.9546 142.674 55.3016 142.578 54.687C142.482 54.0532 142.425 53.5059 142.405 53.0449C142.405 52.584 142.405 52.3055 142.405 52.2095C142.405 51.5949 142.377 50.8651 142.319 50.02C142.281 49.1558 142.175 48.2723 142.002 47.3696C141.829 46.4478 141.58 45.5451 141.253 44.6616C140.946 43.759 140.514 42.9523 139.957 42.2417C139.419 41.5311 138.747 40.9645 137.94 40.542C137.153 40.1003 136.202 39.8794 135.088 39.8794C134.934 39.8794 134.771 39.889 134.598 39.9082C134.445 39.9274 134.291 39.937 134.137 39.937V57.8848L126.186 58.0576C126.301 57.3854 126.398 56.598 126.474 55.6953C126.57 54.7734 126.647 53.8035 126.705 52.7856C126.762 51.7485 126.81 50.673 126.849 49.5591C126.887 48.4451 126.916 47.3504 126.935 46.2749C126.954 45.1994 126.964 44.1623 126.964 43.1636C126.983 42.1457 126.993 41.2334 126.993 40.4268C126.993 39.8122 126.983 38.9095 126.964 37.7188C126.964 36.528 126.945 35.1932 126.906 33.7144C126.887 32.2163 126.858 30.651 126.82 29.0186C126.801 27.3669 126.772 25.792 126.734 24.2939C126.695 22.7767 126.647 21.4035 126.59 20.1743C126.551 18.9259 126.513 17.9657 126.474 17.2935C127.531 17.0822 128.664 16.9285 129.874 16.8325C131.084 16.7173 132.207 16.6309 133.244 16.5732C134.454 16.4964 135.655 16.458 136.845 16.458C138.766 16.3812 140.571 16.5444 142.261 16.9478C143.952 17.3319 145.43 17.9945 146.698 18.9355C147.985 19.8574 149.003 21.0578 149.752 22.5366C150.52 23.9963 150.923 25.744 150.962 27.7798C150.654 29.2202 150.165 30.555 149.492 31.7842C149.204 32.3027 148.859 32.8405 148.455 33.3975C148.071 33.9352 147.61 34.4442 147.072 34.9243C146.554 35.4045 145.959 35.8462 145.286 36.2495C144.614 36.6336 143.865 36.9409 143.039 37.1714C144.268 37.6515 145.267 38.2181 146.035 38.8711C146.804 39.5049 147.409 40.2251 147.85 41.0317C148.292 41.8192 148.609 42.6738 148.801 43.5957C149.012 44.4984 149.156 45.4587 149.233 46.4766C149.329 47.4753 149.406 48.5124 149.464 49.5879C149.521 50.6442 149.627 51.7197 149.78 52.8145C149.934 53.6403 150.126 54.4277 150.357 55.1768C150.568 55.8298 150.827 56.4924 151.134 57.1646C151.461 57.8175 151.855 58.3553 152.316 58.7778L143.932 58.5186ZM143.644 28.1543C143.625 26.9251 143.356 25.8208 142.838 24.8413C142.607 24.438 142.309 24.0347 141.945 23.6313C141.599 23.228 141.157 22.8727 140.619 22.5654C140.101 22.2581 139.467 22.0085 138.718 21.8164C137.988 21.6243 137.134 21.5283 136.154 21.5283C135.405 21.5283 134.579 21.634 133.676 21.8452L133.792 34.8667C134.137 34.9243 134.483 34.9723 134.829 35.0107C135.175 35.0299 135.491 35.0396 135.78 35.0396C136.701 35.0396 137.518 34.9435 138.228 34.7515C138.939 34.5594 139.563 34.3001 140.101 33.9736C140.639 33.6471 141.099 33.2822 141.484 32.8789C141.868 32.4756 142.194 32.0531 142.463 31.6113C143.078 30.5934 143.471 29.4411 143.644 28.1543ZM173.472 16.9478C172.626 19.1756 171.829 21.4035 171.08 23.6313C170.331 25.8592 169.611 28.0967 168.92 30.3438C168.248 32.5908 167.585 34.8475 166.932 37.1138C166.279 39.38 165.626 41.6463 164.973 43.9126C165.107 46.4862 165.251 49.0405 165.405 51.5757C165.559 54.0916 165.77 56.6268 166.039 59.1812L157.252 59.5269C157.502 56.5308 157.684 53.5635 157.8 50.625C157.934 47.6865 158.03 44.7192 158.088 41.7231C156.59 37.4403 155.015 33.2342 153.363 29.105C151.711 24.9565 149.964 20.8177 148.12 16.6885C149.541 16.6501 151.049 16.5924 152.643 16.5156C154.237 16.4196 155.716 16.266 157.079 16.0547C157.425 17.8216 157.752 19.5885 158.059 21.3555C158.385 23.1224 158.712 24.8989 159.038 26.6851C159.384 28.452 159.749 30.2093 160.133 31.957C160.517 33.7048 160.959 35.4237 161.458 37.1138C162.284 33.6567 163.024 30.1805 163.677 26.6851C164.33 23.1896 164.906 19.7422 165.405 16.3428C168.056 16.6885 170.744 16.8901 173.472 16.9478Z" fill="black"/>
<path d="M67.1387 123.824C66.8066 124.142 66.4868 124.3 66.1792 124.3C66.0083 124.3 65.8911 124.237 65.8276 124.11C65.9399 123.998 65.9961 123.885 65.9961 123.773C65.9961 123.661 65.979 123.575 65.9448 123.517L65.8496 123.348L65.9668 123.568C65.8496 123.514 65.7593 123.424 65.6958 123.297C65.6323 123.17 65.6006 123.016 65.6006 122.835C65.6006 122.65 65.7031 122.44 65.9082 122.206C65.8105 122.069 65.7617 121.917 65.7617 121.751C65.7617 121.585 65.7886 121.449 65.8423 121.341C65.9009 121.229 65.9741 121.129 66.062 121.041C66.2573 120.855 66.4648 120.763 66.6846 120.763C66.8311 120.763 66.936 120.814 66.9995 120.917C66.8677 121.058 66.8018 121.283 66.8018 121.59C66.8018 121.893 66.853 122.152 66.9556 122.367C67.063 122.582 67.207 122.765 67.3877 122.916C67.7686 123.238 68.2373 123.399 68.7939 123.399C69.4141 123.399 69.8438 123.172 70.083 122.718C70.1514 122.582 70.1855 122.445 70.1855 122.308C70.1855 122.167 70.1538 122.042 70.0903 121.935C70.0269 121.822 69.9438 121.715 69.8413 121.612C69.6704 121.446 69.4092 121.256 69.0576 121.041C68.7207 120.802 68.3228 120.682 67.8638 120.682C67.5659 120.682 67.3657 120.707 67.2632 120.755C67.3267 120.609 67.3584 120.462 67.3584 120.316C67.3584 120.169 67.2607 120.011 67.0654 119.84C66.8701 119.664 66.6943 119.488 66.5381 119.312C66.3867 119.137 66.2646 118.961 66.1719 118.785C65.9863 118.453 65.8936 118.102 65.8936 117.73C65.8936 117.359 65.9692 117.032 66.1206 116.749C66.2769 116.461 66.4941 116.214 66.7725 116.009C67.3535 115.575 68.0981 115.357 69.0063 115.357C69.4458 115.357 69.7461 115.377 69.9072 115.416C70.0732 115.455 70.2051 115.492 70.3027 115.526C70.4346 115.575 70.5957 115.599 70.7861 115.599C70.9766 115.599 71.1084 115.558 71.1816 115.475C71.2598 115.392 71.2988 115.316 71.2988 115.248C71.2988 115.174 71.2915 115.118 71.2769 115.079C71.3062 115.069 71.3501 115.064 71.4087 115.064C71.4673 115.064 71.5332 115.082 71.6064 115.116C71.6846 115.15 71.7529 115.196 71.8115 115.255C71.9287 115.387 71.9873 115.528 71.9873 115.68C71.9873 115.826 71.958 115.938 71.8994 116.017C72.0361 116.144 72.1045 116.324 72.1045 116.559C72.1045 116.793 72.0068 116.991 71.8115 117.152C71.8555 117.24 71.8774 117.347 71.8774 117.474C71.8774 117.601 71.8091 117.723 71.6724 117.84C71.5356 117.958 71.4062 118.016 71.2842 118.016C71.0742 118.016 70.9326 117.989 70.8594 117.936C70.9229 117.779 70.9546 117.611 70.9546 117.43C70.9546 117.245 70.9058 117.069 70.8081 116.903C70.7104 116.737 70.5859 116.603 70.4346 116.5C70.1514 116.305 69.8145 116.207 69.4238 116.207C68.9307 116.207 68.5986 116.363 68.4277 116.676C68.374 116.773 68.3472 116.881 68.3472 116.998C68.3472 117.11 68.3618 117.215 68.3911 117.313C68.4253 117.406 68.479 117.501 68.5522 117.599C68.6938 117.789 68.894 117.97 69.1528 118.141C69.4897 118.36 69.7241 118.47 69.856 118.47C70.1392 118.47 70.3857 118.402 70.5957 118.265C70.5371 118.5 70.5078 118.663 70.5078 118.756C70.5078 118.897 70.6201 119.061 70.8447 119.247C71.4746 119.681 71.9043 120.079 72.1338 120.44C72.3535 120.792 72.4634 121.183 72.4634 121.612C72.4634 122.042 72.3682 122.411 72.1777 122.718C71.9873 123.021 71.7285 123.282 71.4014 123.502C70.7227 123.956 69.8999 124.183 68.9331 124.183C68.2739 124.183 67.6758 124.063 67.1387 123.824ZM66.8823 117.115C66.7407 117.184 66.6699 117.374 66.6699 117.687C66.6699 117.994 66.77 118.29 66.9702 118.573C67.1704 118.851 67.4878 119.166 67.9224 119.518C68.0249 119.596 68.0762 119.671 68.0762 119.745C68.0762 119.857 68.0664 119.947 68.0469 120.016C68.1055 120.001 68.208 119.986 68.3545 119.972C68.7109 119.938 69.1528 120.104 69.6802 120.47C70.52 120.987 70.9399 121.532 70.9399 122.103C70.9399 122.318 70.9106 122.479 70.8521 122.586C71.0278 122.552 71.1621 122.403 71.2549 122.14C71.2793 122.062 71.2915 121.981 71.2915 121.898C71.2915 121.502 71.0767 121.102 70.647 120.697C70.2222 120.287 69.6094 119.891 68.8086 119.51C67.4805 118.836 66.8384 118.038 66.8823 117.115ZM79.468 124.146C78.7795 124.146 78.4084 123.67 78.3547 122.718C78.1057 123.167 77.7688 123.524 77.3439 123.788C76.924 124.051 76.4699 124.183 75.9816 124.183C75.4982 124.183 75.1052 124.117 74.8024 123.985C74.4997 123.854 74.2482 123.663 74.048 123.414C73.6574 122.926 73.4621 122.232 73.4621 121.334V120.88C73.4621 120.313 73.1643 119.894 72.5686 119.62C72.9201 119.449 73.1447 119.305 73.2424 119.188C73.3889 119.007 73.4621 118.805 73.4621 118.58V117.591C73.4621 117.176 73.3205 116.952 73.0373 116.917C72.9543 116.908 72.8493 116.903 72.7224 116.903C72.5954 116.903 72.4782 116.944 72.3708 117.027C72.3024 116.935 72.2683 116.839 72.2683 116.742C72.2683 116.639 72.2927 116.527 72.3415 116.405C72.3952 116.278 72.4758 116.158 72.5832 116.046C72.8371 115.782 73.1325 115.65 73.4694 115.65C73.8063 115.65 74.1237 115.707 74.4216 115.819C74.6364 115.511 74.8903 115.357 75.1833 115.357C75.6862 115.357 75.9377 115.621 75.9377 116.148V120.917C75.9377 121.844 76.1525 122.401 76.5822 122.586C76.7189 122.645 76.8703 122.674 77.0363 122.674C77.2072 122.674 77.361 122.64 77.4978 122.572C77.6345 122.499 77.7541 122.401 77.8566 122.279C78.0471 122.04 78.1691 121.712 78.2229 121.297V117.591C78.2229 117.035 77.9958 116.756 77.5417 116.756C77.3757 116.756 77.239 116.798 77.1315 116.881C77.0632 116.788 77.029 116.693 77.029 116.595C77.029 116.493 77.0534 116.388 77.1022 116.28C77.156 116.168 77.2365 116.065 77.3439 115.973C77.5832 115.758 77.8737 115.65 78.2155 115.65C78.5622 115.65 78.8845 115.707 79.1823 115.819C79.3972 115.511 79.6511 115.357 79.944 115.357C80.447 115.357 80.6984 115.621 80.6984 116.148V118.58C80.6984 118.805 80.7424 118.971 80.8303 119.078C80.9865 119.269 81.2404 119.449 81.592 119.62C80.9963 119.894 80.6984 120.313 80.6984 120.88V122.77C80.7912 123.146 80.9938 123.333 81.3063 123.333C81.4724 123.333 81.6091 123.292 81.7165 123.209C81.7849 123.302 81.819 123.419 81.819 123.561C81.819 123.697 81.7482 123.829 81.6066 123.956C81.4699 124.083 81.2526 124.146 80.9548 124.146C80.6618 124.146 80.3835 124.068 80.1198 123.912C79.9245 124.068 79.7072 124.146 79.468 124.146ZM78.9187 122.059C79.2019 121.947 79.3508 121.407 79.3654 120.44C79.3654 120.235 79.3654 120.001 79.3654 119.737C79.3654 119.474 79.363 119.249 79.3581 119.063C79.3581 118.873 79.3557 118.692 79.3508 118.521C79.3313 117.906 79.2751 117.54 79.1823 117.423C79.0896 117.301 79.0017 117.22 78.9187 117.181V122.059ZM74.5388 119.62L74.5607 118.653C74.5607 118.219 74.5461 117.931 74.5168 117.789C74.4338 117.418 74.3166 117.215 74.1652 117.181V117.657C74.1652 118.482 74.1457 118.968 74.1066 119.115C74.0725 119.256 74.0139 119.364 73.9309 119.437C73.8527 119.505 73.7355 119.566 73.5793 119.62C73.8723 119.723 74.0383 119.847 74.0773 119.994C74.1359 120.228 74.1652 120.758 74.1652 121.583V122.059C74.3117 122.025 74.4313 121.808 74.5241 121.407C74.5485 121.295 74.5607 121.021 74.5607 120.587L74.5388 119.62ZM83.3305 123.912C83.1059 124.068 82.8495 124.146 82.5614 124.146C82.2733 124.146 82.0634 124.081 81.9315 123.949C81.8046 123.812 81.7411 123.683 81.7411 123.561C81.7411 123.399 81.768 123.282 81.8217 123.209C81.9291 123.292 82.0658 123.333 82.2318 123.333C82.5443 123.333 82.747 123.182 82.8397 122.879V120.602C82.8397 120.387 82.7934 120.23 82.7006 120.133C82.559 119.972 82.3075 119.803 81.9462 119.627C82.288 119.471 82.5053 119.347 82.598 119.254C82.7592 119.093 82.8397 118.895 82.8397 118.661V117.591C82.8397 117.176 82.6981 116.952 82.4149 116.917C82.3319 116.908 82.227 116.903 82.1 116.903C81.973 116.903 81.8559 116.944 81.7484 117.027C81.6801 116.935 81.6459 116.839 81.6459 116.742C81.6459 116.639 81.6703 116.527 81.7191 116.405C81.7729 116.278 81.851 116.158 81.9535 116.046C82.2123 115.782 82.5102 115.65 82.8471 115.65C83.1889 115.65 83.4721 115.704 83.6967 115.812C83.9652 115.509 84.2387 115.357 84.517 115.357C84.7953 115.357 84.9882 115.423 85.0956 115.555C85.203 115.682 85.2567 115.88 85.2567 116.148V116.837C85.5106 116.383 85.8573 116.024 86.2968 115.76C86.7362 115.492 87.2025 115.357 87.6957 115.357C88.1889 115.357 88.5844 115.423 88.8822 115.555C89.185 115.682 89.434 115.865 89.6293 116.104C90.0102 116.578 90.2006 117.267 90.2006 118.17V118.653C90.2006 118.888 90.2519 119.056 90.3544 119.159C90.5058 119.315 90.7523 119.471 91.0941 119.627C90.7279 119.808 90.4984 119.945 90.4057 120.038C90.2689 120.189 90.2006 120.372 90.2006 120.587V122.879C90.2934 123.182 90.496 123.333 90.8085 123.333C90.9745 123.333 91.1112 123.292 91.2187 123.209C91.2724 123.282 91.2992 123.39 91.2992 123.531C91.2992 123.673 91.2333 123.812 91.1015 123.949C90.9745 124.081 90.7768 124.146 90.5082 124.146C90.2396 124.146 89.9955 124.071 89.7758 123.919C89.5805 124.071 89.351 124.146 89.0873 124.146C88.8285 124.146 88.5966 124.073 88.3915 123.927C88.1767 124.073 87.9472 124.146 87.703 124.146C87.4589 124.146 87.266 124.085 87.1244 123.963C86.9828 123.841 86.912 123.666 86.912 123.436C86.912 123.329 86.9486 123.243 87.0219 123.18C87.1342 123.268 87.2465 123.312 87.3588 123.312C87.5736 123.312 87.7274 123.192 87.8202 122.953V118.587C87.8202 117.64 87.5883 117.091 87.1244 116.939C86.973 116.891 86.8095 116.866 86.6337 116.866C86.4579 116.866 86.2943 116.903 86.143 116.976C85.9916 117.044 85.8549 117.142 85.7328 117.269C85.4643 117.552 85.3056 117.889 85.2567 118.28V122.953C85.3495 123.192 85.5033 123.312 85.7182 123.312C85.8305 123.312 85.9428 123.268 86.0551 123.18C86.1283 123.243 86.1649 123.36 86.1649 123.531C86.1649 123.697 86.0941 123.841 85.9525 123.963C85.8109 124.085 85.6229 124.146 85.3886 124.146C85.1591 124.146 84.9491 124.073 84.7587 123.927C84.5731 124.073 84.3461 124.146 84.0775 124.146C83.809 124.146 83.56 124.068 83.3305 123.912ZM88.5233 122.059C88.7675 121.966 88.9018 121.646 88.9262 121.1C88.9555 120.553 88.9701 120.038 88.9701 119.554C88.9701 119.071 88.9506 118.673 88.9115 118.36C88.8725 118.043 88.8163 117.796 88.7431 117.621C88.6698 117.44 88.5819 117.311 88.4794 117.232C88.3817 117.149 88.2743 117.079 88.1571 117.02C88.3427 117.459 88.4501 117.86 88.4794 118.221C88.5087 118.583 88.5233 118.932 88.5233 119.269V122.059ZM83.9604 120.44C83.9652 120.279 83.9677 120.145 83.9677 120.038C83.9726 119.925 83.975 119.835 83.975 119.767C83.975 119.698 83.975 119.63 83.975 119.562C83.975 119.488 83.9726 119.393 83.9677 119.276C83.9677 119.159 83.9652 119.029 83.9604 118.888C83.9604 118.746 83.9555 118.607 83.9457 118.47C83.9311 118.133 83.9091 117.901 83.8798 117.774C83.8212 117.491 83.7089 117.296 83.5429 117.188V117.665C83.5429 118.485 83.5233 118.968 83.4843 119.115C83.4501 119.256 83.3915 119.364 83.3085 119.437C83.2304 119.51 83.1132 119.574 82.9569 119.627C83.2499 119.73 83.4159 119.852 83.455 119.994C83.5136 120.228 83.5429 120.755 83.5429 121.576V122.052C83.7675 121.905 83.8969 121.607 83.9311 121.158C83.9506 120.841 83.9604 120.602 83.9604 120.44ZM92.6568 123.912C92.4322 124.068 92.1759 124.146 91.8878 124.146C91.5997 124.146 91.3897 124.081 91.2579 123.949C91.131 123.812 91.0675 123.683 91.0675 123.561C91.0675 123.399 91.0943 123.282 91.148 123.209C91.2555 123.292 91.3922 123.333 91.5582 123.333C91.8707 123.333 92.0733 123.182 92.1661 122.879V120.602C92.1661 120.387 92.1197 120.23 92.027 120.133C91.8854 119.972 91.6339 119.803 91.2726 119.627C91.6144 119.471 91.8316 119.347 91.9244 119.254C92.0855 119.093 92.1661 118.895 92.1661 118.661V117.591C92.1661 117.176 92.0245 116.952 91.7413 116.917C91.6583 116.908 91.5533 116.903 91.4264 116.903C91.2994 116.903 91.1822 116.944 91.0748 117.027C91.0064 116.935 90.9723 116.839 90.9723 116.742C90.9723 116.639 90.9967 116.527 91.0455 116.405C91.0992 116.278 91.1773 116.158 91.2799 116.046C91.5387 115.782 91.8365 115.65 92.1734 115.65C92.5152 115.65 92.7984 115.704 93.023 115.812C93.2916 115.509 93.565 115.357 93.8434 115.357C94.1217 115.357 94.3146 115.423 94.422 115.555C94.5294 115.682 94.5831 115.88 94.5831 116.148V116.837C94.837 116.383 95.1837 116.024 95.6231 115.76C96.0626 115.492 96.5289 115.357 97.0221 115.357C97.5152 115.357 97.9107 115.423 98.2086 115.555C98.5113 115.682 98.7604 115.865 98.9557 116.104C99.3365 116.578 99.527 117.267 99.527 118.17V118.653C99.527 118.888 99.5782 119.056 99.6808 119.159C99.8321 119.315 100.079 119.471 100.421 119.627C100.054 119.808 99.8248 119.945 99.732 120.038C99.5953 120.189 99.527 120.372 99.527 120.587V122.879C99.6197 123.182 99.8224 123.333 100.135 123.333C100.301 123.333 100.438 123.292 100.545 123.209C100.599 123.282 100.626 123.39 100.626 123.531C100.626 123.673 100.56 123.812 100.428 123.949C100.301 124.081 100.103 124.146 99.8346 124.146C99.566 124.146 99.3219 124.071 99.1021 123.919C98.9068 124.071 98.6773 124.146 98.4137 124.146C98.1549 124.146 97.9229 124.073 97.7179 123.927C97.503 124.073 97.2735 124.146 97.0294 124.146C96.7853 124.146 96.5924 124.085 96.4508 123.963C96.3092 123.841 96.2384 123.666 96.2384 123.436C96.2384 123.329 96.275 123.243 96.3482 123.18C96.4605 123.268 96.5729 123.312 96.6852 123.312C96.9 123.312 97.0538 123.192 97.1466 122.953V118.587C97.1466 117.64 96.9146 117.091 96.4508 116.939C96.2994 116.891 96.1358 116.866 95.9601 116.866C95.7843 116.866 95.6207 116.903 95.4693 116.976C95.318 117.044 95.1812 117.142 95.0592 117.269C94.7906 117.552 94.6319 117.889 94.5831 118.28V122.953C94.6759 123.192 94.8297 123.312 95.0445 123.312C95.1568 123.312 95.2691 123.268 95.3814 123.18C95.4547 123.243 95.4913 123.36 95.4913 123.531C95.4913 123.697 95.4205 123.841 95.2789 123.963C95.1373 124.085 94.9493 124.146 94.7149 124.146C94.4854 124.146 94.2755 124.073 94.0851 123.927C93.8995 124.073 93.6725 124.146 93.4039 124.146C93.1354 124.146 92.8863 124.068 92.6568 123.912ZM97.8497 122.059C98.0938 121.966 98.2281 121.646 98.2525 121.1C98.2818 120.553 98.2965 120.038 98.2965 119.554C98.2965 119.071 98.277 118.673 98.2379 118.36C98.1988 118.043 98.1427 117.796 98.0694 117.621C97.9962 117.44 97.9083 117.311 97.8058 117.232C97.7081 117.149 97.6007 117.079 97.4835 117.02C97.669 117.459 97.7765 117.86 97.8058 118.221C97.8351 118.583 97.8497 118.932 97.8497 119.269V122.059ZM93.2867 120.44C93.2916 120.279 93.294 120.145 93.294 120.038C93.2989 119.925 93.3014 119.835 93.3014 119.767C93.3014 119.698 93.3014 119.63 93.3014 119.562C93.3014 119.488 93.2989 119.393 93.294 119.276C93.294 119.159 93.2916 119.029 93.2867 118.888C93.2867 118.746 93.2818 118.607 93.2721 118.47C93.2574 118.133 93.2354 117.901 93.2062 117.774C93.1476 117.491 93.0353 117.296 92.8692 117.188V117.665C92.8692 118.485 92.8497 118.968 92.8106 119.115C92.7765 119.256 92.7179 119.364 92.6349 119.437C92.5567 119.51 92.4396 119.574 92.2833 119.627C92.5763 119.73 92.7423 119.852 92.7813 119.994C92.8399 120.228 92.8692 120.755 92.8692 121.576V122.052C93.0938 121.905 93.2232 121.607 93.2574 121.158C93.277 120.841 93.2867 120.602 93.2867 120.44ZM109.198 116.449C109.09 116.38 108.919 116.346 108.685 116.346C108.216 116.346 107.862 116.664 107.623 117.298L107.396 117.936C107.23 118.399 107.144 118.717 107.139 118.888C107.139 119.059 107.169 119.198 107.227 119.305C107.291 119.408 107.43 119.515 107.645 119.627C107.117 119.774 106.759 120.021 106.568 120.367C106.51 120.475 106.458 120.587 106.414 120.704L105.199 124.007C104.725 125.37 104.285 126.292 103.88 126.776C103.509 127.22 103.045 127.442 102.489 127.442C102.064 127.442 101.663 127.306 101.287 127.032C100.858 126.725 100.643 126.363 100.643 125.948C100.643 125.689 100.711 125.492 100.848 125.355C100.985 125.223 101.109 125.157 101.221 125.157C101.339 125.157 101.419 125.157 101.463 125.157C101.507 125.162 101.551 125.172 101.595 125.187C101.683 125.226 101.766 125.313 101.844 125.45C101.742 125.646 101.807 125.86 102.042 126.095C102.262 126.324 102.467 126.439 102.657 126.439C102.852 126.439 103.013 126.402 103.14 126.329C103.272 126.256 103.389 126.144 103.492 125.992C103.717 125.66 103.829 125.184 103.829 124.564C103.829 124.227 103.739 123.856 103.558 123.451C103.509 123.314 103.45 123.17 103.382 123.019L102.342 120.675C102.23 120.426 102.059 120.206 101.829 120.016C101.605 119.82 101.351 119.691 101.068 119.627C101.405 119.457 101.573 119.232 101.573 118.954C101.573 118.753 101.492 118.458 101.331 118.067L100.899 117.027C100.772 116.744 100.667 116.566 100.584 116.493C100.438 116.375 100.267 116.317 100.072 116.317C99.8812 116.317 99.7322 116.358 99.6248 116.441C99.5662 116.383 99.5369 116.297 99.5369 116.185C99.532 116.073 99.5442 115.98 99.5735 115.907C99.6028 115.829 99.6517 115.76 99.72 115.702C99.8665 115.57 100.076 115.504 100.35 115.504C100.628 115.504 100.889 115.592 101.134 115.768C101.334 115.592 101.578 115.504 101.866 115.504C102.154 115.504 102.408 115.584 102.628 115.746C102.847 115.584 103.094 115.504 103.367 115.504C103.641 115.504 103.856 115.57 104.012 115.702C104.173 115.829 104.256 115.956 104.261 116.083C104.266 116.273 104.234 116.402 104.166 116.471C104.049 116.383 103.927 116.339 103.8 116.339C103.673 116.339 103.568 116.375 103.485 116.449C103.407 116.522 103.372 116.642 103.382 116.808L105.074 121.378L106.678 116.683C106.624 116.434 106.446 116.31 106.143 116.31C105.953 116.31 105.772 116.356 105.601 116.449C105.553 116.356 105.528 116.236 105.528 116.09C105.533 115.943 105.601 115.809 105.733 115.687C105.87 115.565 106.053 115.504 106.283 115.504C106.517 115.504 106.717 115.582 106.883 115.738C107.059 115.582 107.257 115.504 107.476 115.504C107.696 115.504 107.896 115.572 108.077 115.709C108.243 115.572 108.426 115.504 108.626 115.504C108.831 115.504 108.992 115.562 109.11 115.68C109.232 115.797 109.29 115.919 109.285 116.046C109.276 116.241 109.246 116.375 109.198 116.449ZM102.144 117.181C102.032 117.254 101.976 117.347 101.976 117.459C101.981 117.572 101.986 117.66 101.991 117.723C102 117.782 102.015 117.853 102.034 117.936C102.078 118.092 102.166 118.324 102.298 118.631C102.435 118.934 102.506 119.125 102.511 119.203C102.52 119.276 102.496 119.359 102.437 119.452C102.379 119.54 102.308 119.598 102.225 119.627C102.537 119.686 102.73 119.796 102.804 119.957C102.838 120.025 102.887 120.133 102.95 120.279L103.448 121.393C103.546 121.617 103.648 121.839 103.756 122.059C103.956 121.815 103.868 121.253 103.492 120.375L102.144 117.181ZM112.96 123.824C112.628 124.142 112.308 124.3 112.001 124.3C111.83 124.3 111.713 124.237 111.649 124.11C111.761 123.998 111.818 123.885 111.818 123.773C111.818 123.661 111.8 123.575 111.766 123.517L111.671 123.348L111.788 123.568C111.671 123.514 111.581 123.424 111.517 123.297C111.454 123.17 111.422 123.016 111.422 122.835C111.422 122.65 111.525 122.44 111.73 122.206C111.632 122.069 111.583 121.917 111.583 121.751C111.583 121.585 111.61 121.449 111.664 121.341C111.722 121.229 111.796 121.129 111.883 121.041C112.079 120.855 112.286 120.763 112.506 120.763C112.653 120.763 112.758 120.814 112.821 120.917C112.689 121.058 112.623 121.283 112.623 121.59C112.623 121.893 112.675 122.152 112.777 122.367C112.884 122.582 113.029 122.765 113.209 122.916C113.59 123.238 114.059 123.399 114.615 123.399C115.236 123.399 115.665 123.172 115.904 122.718C115.973 122.582 116.007 122.445 116.007 122.308C116.007 122.167 115.975 122.042 115.912 121.935C115.848 121.822 115.765 121.715 115.663 121.612C115.492 121.446 115.231 121.256 114.879 121.041C114.542 120.802 114.144 120.682 113.685 120.682C113.387 120.682 113.187 120.707 113.085 120.755C113.148 120.609 113.18 120.462 113.18 120.316C113.18 120.169 113.082 120.011 112.887 119.84C112.692 119.664 112.516 119.488 112.36 119.312C112.208 119.137 112.086 118.961 111.993 118.785C111.808 118.453 111.715 118.102 111.715 117.73C111.715 117.359 111.791 117.032 111.942 116.749C112.098 116.461 112.316 116.214 112.594 116.009C113.175 115.575 113.92 115.357 114.828 115.357C115.267 115.357 115.568 115.377 115.729 115.416C115.895 115.455 116.027 115.492 116.124 115.526C116.256 115.575 116.417 115.599 116.608 115.599C116.798 115.599 116.93 115.558 117.003 115.475C117.081 115.392 117.12 115.316 117.12 115.248C117.12 115.174 117.113 115.118 117.098 115.079C117.128 115.069 117.172 115.064 117.23 115.064C117.289 115.064 117.355 115.082 117.428 115.116C117.506 115.15 117.574 115.196 117.633 115.255C117.75 115.387 117.809 115.528 117.809 115.68C117.809 115.826 117.779 115.938 117.721 116.017C117.858 116.144 117.926 116.324 117.926 116.559C117.926 116.793 117.828 116.991 117.633 117.152C117.677 117.24 117.699 117.347 117.699 117.474C117.699 117.601 117.631 117.723 117.494 117.84C117.357 117.958 117.228 118.016 117.106 118.016C116.896 118.016 116.754 117.989 116.681 117.936C116.744 117.779 116.776 117.611 116.776 117.43C116.776 117.245 116.727 117.069 116.63 116.903C116.532 116.737 116.407 116.603 116.256 116.5C115.973 116.305 115.636 116.207 115.245 116.207C114.752 116.207 114.42 116.363 114.249 116.676C114.196 116.773 114.169 116.881 114.169 116.998C114.169 117.11 114.183 117.215 114.213 117.313C114.247 117.406 114.3 117.501 114.374 117.599C114.515 117.789 114.716 117.97 114.974 118.141C115.311 118.36 115.546 118.47 115.677 118.47C115.961 118.47 116.207 118.402 116.417 118.265C116.359 118.5 116.329 118.663 116.329 118.756C116.329 118.897 116.442 119.061 116.666 119.247C117.296 119.681 117.726 120.079 117.955 120.44C118.175 120.792 118.285 121.183 118.285 121.612C118.285 122.042 118.19 122.411 117.999 122.718C117.809 123.021 117.55 123.282 117.223 123.502C116.544 123.956 115.721 124.183 114.755 124.183C114.095 124.183 113.497 124.063 112.96 123.824ZM112.704 117.115C112.562 117.184 112.491 117.374 112.491 117.687C112.491 117.994 112.592 118.29 112.792 118.573C112.992 118.851 113.309 119.166 113.744 119.518C113.846 119.596 113.898 119.671 113.898 119.745C113.898 119.857 113.888 119.947 113.868 120.016C113.927 120.001 114.029 119.986 114.176 119.972C114.532 119.938 114.974 120.104 115.502 120.47C116.342 120.987 116.761 121.532 116.761 122.103C116.761 122.318 116.732 122.479 116.674 122.586C116.849 122.552 116.984 122.403 117.076 122.14C117.101 122.062 117.113 121.981 117.113 121.898C117.113 121.502 116.898 121.102 116.468 120.697C116.044 120.287 115.431 119.891 114.63 119.51C113.302 118.836 112.66 118.038 112.704 117.115ZM120.507 114.31C120.258 114.31 120.016 114.244 119.782 114.112C119.552 113.98 119.376 113.805 119.254 113.585C119.122 113.36 118.947 113.189 118.727 113.072C118.659 113.038 118.58 113.001 118.493 112.962L118.742 112.809C118.976 112.662 119.149 112.484 119.262 112.274C119.374 112.064 119.542 111.9 119.767 111.783C119.996 111.661 120.243 111.6 120.507 111.6C121.054 111.6 121.449 111.83 121.693 112.289C121.859 112.591 122.116 112.816 122.462 112.962C122.389 113.006 122.316 113.045 122.243 113.08C122.174 113.114 122.108 113.153 122.045 113.197C121.903 113.294 121.776 113.438 121.664 113.629C121.557 113.819 121.398 113.98 121.188 114.112C120.983 114.244 120.756 114.31 120.507 114.31ZM120.119 113.417C120.089 113.363 120.065 113.302 120.045 113.233C120.031 113.16 120.023 113.033 120.023 112.853C120.023 112.672 120.116 112.442 120.302 112.164C120.121 112.164 119.994 112.198 119.921 112.267C119.848 112.33 119.791 112.386 119.752 112.435C119.718 112.479 119.686 112.525 119.657 112.574C119.633 112.618 119.601 112.667 119.562 112.721C119.469 112.853 119.393 112.933 119.335 112.962C119.413 113.006 119.484 113.077 119.547 113.175C119.616 113.268 119.694 113.365 119.782 113.468C119.913 113.629 120.087 113.709 120.302 113.709C120.272 113.656 120.241 113.607 120.206 113.563C120.177 113.514 120.148 113.465 120.119 113.417ZM119.774 123.912C119.55 124.068 119.293 124.146 119.005 124.146C118.722 124.146 118.51 124.083 118.368 123.956C118.231 123.829 118.163 123.707 118.163 123.59C118.163 123.429 118.197 123.302 118.266 123.209C118.373 123.292 118.532 123.333 118.742 123.333C118.952 123.333 119.132 123.197 119.284 122.923V120.587C119.284 120.372 119.24 120.216 119.152 120.118C119.01 119.972 118.756 119.808 118.39 119.627C118.732 119.471 118.949 119.347 119.042 119.254C119.203 119.093 119.284 118.895 119.284 118.661V117.591C119.284 117.176 119.142 116.952 118.859 116.917C118.776 116.908 118.671 116.903 118.544 116.903C118.417 116.903 118.3 116.944 118.192 117.027C118.124 116.935 118.09 116.839 118.09 116.742C118.09 116.639 118.114 116.527 118.163 116.405C118.217 116.278 118.297 116.158 118.405 116.046C118.659 115.782 118.952 115.65 119.284 115.65C119.616 115.65 119.916 115.709 120.184 115.826C120.424 115.514 120.697 115.357 121.005 115.357C121.508 115.357 121.759 115.621 121.759 116.148V118.661C121.759 118.895 121.81 119.063 121.913 119.166C122.064 119.317 122.311 119.471 122.653 119.627C122.287 119.808 122.057 119.945 121.964 120.038C121.828 120.189 121.759 120.372 121.759 120.587V122.945C121.92 123.204 122.103 123.333 122.308 123.333C122.514 123.333 122.67 123.292 122.777 123.209C122.846 123.302 122.88 123.419 122.88 123.561C122.88 123.697 122.809 123.829 122.667 123.956C122.531 124.083 122.323 124.146 122.045 124.146C121.767 124.146 121.508 124.068 121.268 123.912C121.068 124.068 120.827 124.146 120.543 124.146C120.26 124.146 120.004 124.068 119.774 123.912ZM120.404 120.44C120.409 120.274 120.412 120.135 120.412 120.023C120.416 119.911 120.419 119.82 120.419 119.752V119.554C120.419 119.481 120.416 119.386 120.412 119.269C120.412 119.151 120.409 119.022 120.404 118.88C120.404 118.739 120.402 118.6 120.397 118.463C120.377 118.126 120.353 117.894 120.324 117.767C120.265 117.484 120.153 117.289 119.987 117.181V117.657C119.987 118.482 119.967 118.968 119.928 119.115C119.894 119.256 119.835 119.364 119.752 119.437C119.674 119.505 119.557 119.566 119.401 119.62C119.694 119.723 119.86 119.847 119.899 119.994C119.957 120.228 119.987 120.758 119.987 121.583V122.059C120.211 121.913 120.338 121.612 120.368 121.158C120.392 120.846 120.404 120.606 120.404 120.44ZM129.687 124.146C129.189 124.146 128.8 123.878 128.522 123.341C128.175 123.741 127.712 124.005 127.13 124.132C126.96 124.166 126.791 124.183 126.625 124.183C125.6 124.183 124.804 123.858 124.237 123.209C123.72 122.608 123.429 121.759 123.366 120.66C123.356 120.445 123.307 120.282 123.219 120.169C123.073 119.984 122.824 119.806 122.472 119.635C123.048 119.371 123.349 118.966 123.373 118.419C123.398 117.872 123.493 117.406 123.659 117.02C123.83 116.629 124.057 116.31 124.34 116.061C124.882 115.592 125.639 115.357 126.61 115.357C127.143 115.357 127.604 115.494 127.995 115.768C128.127 115.86 128.239 115.968 128.332 116.09V114.515C128.332 113.958 128.105 113.68 127.65 113.68C127.484 113.68 127.348 113.722 127.24 113.805C127.172 113.712 127.138 113.617 127.138 113.519C127.138 113.417 127.162 113.319 127.211 113.226C127.265 113.133 127.345 113.048 127.453 112.97C127.682 112.804 127.973 112.721 128.324 112.721C128.676 112.721 128.949 112.743 129.145 112.787C129.413 112.45 129.716 112.281 130.053 112.281C130.556 112.281 130.807 112.545 130.807 113.072V118.661C130.807 119.032 131.105 119.354 131.701 119.627C131.105 119.896 130.807 120.216 130.807 120.587V122.784C130.949 123.15 131.151 123.333 131.415 123.333C131.581 123.333 131.718 123.292 131.825 123.209C131.894 123.302 131.928 123.419 131.928 123.561C131.928 123.697 131.857 123.829 131.715 123.956C131.579 124.083 131.371 124.146 131.093 124.146C130.815 124.146 130.556 124.068 130.317 123.912C130.107 124.068 129.897 124.146 129.687 124.146ZM129.035 122.059C129.279 121.966 129.411 121.676 129.43 121.188C129.435 121.075 129.438 120.938 129.438 120.777C129.442 120.611 129.447 120.428 129.452 120.228C129.457 120.028 129.46 119.825 129.46 119.62L129.474 119.034C129.474 118.844 129.474 118.678 129.474 118.536C129.479 118.39 129.482 118.275 129.482 118.192V118.082C129.482 118.067 129.479 117.999 129.474 117.877C129.474 117.75 129.472 117.596 129.467 117.416C129.467 117.23 129.464 117.032 129.46 116.822L129.445 116.207C129.435 115.758 129.418 115.472 129.394 115.35C129.355 115.106 129.235 114.938 129.035 114.845V122.059ZM127.013 116.427C126.232 116.427 125.841 117 125.841 118.148V121.356C125.841 122.25 126.137 122.804 126.728 123.019C126.894 123.082 127.057 123.114 127.218 123.114C127.384 123.114 127.533 123.082 127.665 123.019C127.802 122.95 127.919 122.862 128.017 122.755C128.227 122.516 128.332 122.23 128.332 121.898V118.148C128.332 117.25 128.058 116.705 127.511 116.515C127.35 116.456 127.184 116.427 127.013 116.427ZM124.648 122.059C124.716 122.005 124.75 121.944 124.75 121.876C124.75 121.769 124.728 121.632 124.684 121.466C124.484 120.699 124.384 120.169 124.384 119.876C124.384 119.579 124.394 119.344 124.413 119.173C124.433 119.002 124.46 118.834 124.494 118.668C124.557 118.316 124.621 118.019 124.684 117.774C124.728 117.608 124.75 117.496 124.75 117.438C124.75 117.32 124.716 117.235 124.648 117.181C124.442 117.425 124.286 117.755 124.179 118.17C124.071 118.585 123.983 118.949 123.915 119.261C123.891 119.388 123.747 119.513 123.483 119.635C123.747 119.757 123.891 119.881 123.915 120.008C124.096 120.833 124.245 121.356 124.362 121.576C124.479 121.795 124.574 121.957 124.648 122.059ZM138.427 121.788C138.534 121.583 138.732 121.48 139.02 121.48C139.216 121.48 139.367 121.561 139.474 121.722C139.562 121.849 139.606 122.005 139.606 122.191C139.606 122.372 139.56 122.555 139.467 122.74C139.374 122.926 139.247 123.094 139.086 123.246C138.925 123.397 138.74 123.531 138.53 123.648C138.325 123.766 138.105 123.863 137.87 123.941C137.387 124.103 136.884 124.183 136.362 124.183C135.839 124.183 135.348 124.098 134.889 123.927C134.435 123.751 134.045 123.507 133.718 123.194C133.078 122.579 132.687 121.734 132.546 120.66C132.512 120.421 132.455 120.25 132.377 120.147C132.231 119.967 131.989 119.793 131.652 119.627C132.077 119.437 132.348 119.132 132.465 118.712C132.499 118.595 132.526 118.478 132.546 118.36C132.668 117.501 133.102 116.769 133.849 116.163C134.572 115.577 135.38 115.284 136.274 115.284C137.201 115.284 138.005 115.611 138.683 116.266C139.387 116.939 139.738 117.767 139.738 118.749C139.738 118.783 139.736 118.817 139.731 118.851C139.731 118.885 139.733 118.917 139.738 118.946C139.748 119.01 139.787 119.046 139.855 119.056C139.943 119.168 139.987 119.288 139.987 119.415C139.987 119.708 139.831 119.881 139.518 119.935C139.44 119.95 139.318 119.969 139.152 119.994L135.021 120.653V121.356C135.021 121.922 135.192 122.372 135.534 122.704C135.856 123.021 136.264 123.18 136.757 123.18C137.28 123.18 137.7 123.072 138.017 122.857C138.315 122.652 138.464 122.384 138.464 122.052C138.464 121.974 138.451 121.886 138.427 121.788ZM137.145 119.422V117.372C137.145 117.049 137.082 116.812 136.955 116.661C136.73 116.402 136.508 116.273 136.288 116.273C136.069 116.273 135.886 116.307 135.739 116.375C135.593 116.439 135.466 116.542 135.358 116.683C135.134 116.981 135.021 117.445 135.021 118.075V119.767L137.145 119.422ZM138.229 119.239V119.012C138.229 118.104 138.154 117.555 138.002 117.364C137.934 117.281 137.858 117.22 137.775 117.181V119.312L138.229 119.239ZM133.827 122.059C133.896 122.005 133.93 121.944 133.93 121.876C133.93 121.769 133.908 121.632 133.864 121.466C133.664 120.699 133.564 120.167 133.564 119.869C133.564 119.566 133.574 119.332 133.593 119.166C133.613 118.995 133.639 118.824 133.674 118.653C133.732 118.321 133.796 118.028 133.864 117.774C133.908 117.608 133.93 117.496 133.93 117.438C133.93 117.32 133.896 117.235 133.827 117.181C133.622 117.425 133.466 117.752 133.359 118.163C133.251 118.573 133.163 118.934 133.095 119.247C133.071 119.378 132.927 119.505 132.663 119.627C132.927 119.75 133.071 119.872 133.095 119.994C133.276 120.819 133.425 121.344 133.542 121.568C133.659 121.793 133.754 121.957 133.827 122.059ZM149.836 124.146C149.148 124.146 148.777 123.67 148.723 122.718C148.474 123.167 148.137 123.524 147.712 123.788C147.292 124.051 146.838 124.183 146.35 124.183C145.866 124.183 145.473 124.117 145.171 123.985C144.868 123.854 144.616 123.663 144.416 123.414C144.026 122.926 143.83 122.232 143.83 121.334V120.88C143.83 120.313 143.532 119.894 142.937 119.62C143.288 119.449 143.513 119.305 143.611 119.188C143.757 119.007 143.83 118.805 143.83 118.58V117.591C143.83 117.176 143.689 116.952 143.405 116.917C143.322 116.908 143.217 116.903 143.091 116.903C142.964 116.903 142.846 116.944 142.739 117.027C142.671 116.935 142.636 116.839 142.636 116.742C142.636 116.639 142.661 116.527 142.71 116.405C142.763 116.278 142.844 116.158 142.951 116.046C143.205 115.782 143.501 115.65 143.838 115.65C144.175 115.65 144.492 115.707 144.79 115.819C145.005 115.511 145.258 115.357 145.551 115.357C146.054 115.357 146.306 115.621 146.306 116.148V120.917C146.306 121.844 146.521 122.401 146.95 122.586C147.087 122.645 147.238 122.674 147.404 122.674C147.575 122.674 147.729 122.64 147.866 122.572C148.003 122.499 148.122 122.401 148.225 122.279C148.415 122.04 148.537 121.712 148.591 121.297V117.591C148.591 117.035 148.364 116.756 147.91 116.756C147.744 116.756 147.607 116.798 147.5 116.881C147.431 116.788 147.397 116.693 147.397 116.595C147.397 116.493 147.422 116.388 147.47 116.28C147.524 116.168 147.605 116.065 147.712 115.973C147.951 115.758 148.242 115.65 148.584 115.65C148.93 115.65 149.253 115.707 149.55 115.819C149.765 115.511 150.019 115.357 150.312 115.357C150.815 115.357 151.067 115.621 151.067 116.148V118.58C151.067 118.805 151.111 118.971 151.198 119.078C151.355 119.269 151.609 119.449 151.96 119.62C151.364 119.894 151.067 120.313 151.067 120.88V122.77C151.159 123.146 151.362 123.333 151.675 123.333C151.841 123.333 151.977 123.292 152.085 123.209C152.153 123.302 152.187 123.419 152.187 123.561C152.187 123.697 152.116 123.829 151.975 123.956C151.838 124.083 151.621 124.146 151.323 124.146C151.03 124.146 150.752 124.068 150.488 123.912C150.293 124.068 150.075 124.146 149.836 124.146ZM149.287 122.059C149.57 121.947 149.719 121.407 149.734 120.44C149.734 120.235 149.734 120.001 149.734 119.737C149.734 119.474 149.731 119.249 149.726 119.063C149.726 118.873 149.724 118.692 149.719 118.521C149.699 117.906 149.643 117.54 149.55 117.423C149.458 117.301 149.37 117.22 149.287 117.181V122.059ZM144.907 119.62L144.929 118.653C144.929 118.219 144.914 117.931 144.885 117.789C144.802 117.418 144.685 117.215 144.533 117.181V117.657C144.533 118.482 144.514 118.968 144.475 119.115C144.441 119.256 144.382 119.364 144.299 119.437C144.221 119.505 144.104 119.566 143.947 119.62C144.24 119.723 144.406 119.847 144.446 119.994C144.504 120.228 144.533 120.758 144.533 121.583V122.059C144.68 122.025 144.8 121.808 144.892 121.407C144.917 121.295 144.929 121.021 144.929 120.587L144.907 119.62ZM153.684 127.494C153.464 127.655 153.21 127.735 152.922 127.735C152.634 127.735 152.419 127.672 152.278 127.545C152.141 127.418 152.073 127.296 152.073 127.179C152.073 127.018 152.107 126.891 152.175 126.798C152.283 126.881 152.419 126.922 152.585 126.922C152.869 126.922 153.071 126.759 153.193 126.432V120.66C153.193 120.436 153.147 120.27 153.054 120.162C152.908 119.981 152.656 119.803 152.3 119.627C152.895 119.354 153.193 118.932 153.193 118.36V117.591C153.193 117.176 153.052 116.952 152.768 116.917C152.685 116.908 152.58 116.903 152.454 116.903C152.327 116.903 152.209 116.944 152.102 117.027C152.034 116.935 151.999 116.839 151.999 116.742C151.999 116.639 152.024 116.527 152.073 116.405C152.126 116.278 152.204 116.158 152.307 116.046C152.566 115.782 152.864 115.65 153.201 115.65C153.542 115.65 153.826 115.704 154.05 115.812C154.319 115.509 154.607 115.357 154.914 115.357C155.417 115.357 155.669 115.621 155.669 116.148V116.2C156.055 115.814 156.558 115.553 157.178 115.416C157.368 115.377 157.612 115.357 157.91 115.357C158.213 115.357 158.53 115.401 158.862 115.489C159.194 115.577 159.482 115.733 159.726 115.958C160.215 116.407 160.515 117.208 160.627 118.36C160.676 118.956 160.974 119.378 161.521 119.627C161.174 119.798 160.954 119.942 160.862 120.06C160.74 120.226 160.662 120.426 160.627 120.66C160.486 121.837 160.183 122.706 159.719 123.268C159.211 123.878 158.476 124.183 157.515 124.183C156.772 124.183 156.157 123.988 155.669 123.597V126.417C155.791 126.754 155.994 126.922 156.277 126.922C156.443 126.922 156.579 126.881 156.687 126.798C156.755 126.891 156.789 127.005 156.789 127.142C156.789 127.284 156.719 127.418 156.577 127.545C156.44 127.672 156.23 127.735 155.947 127.735C155.664 127.735 155.408 127.655 155.178 127.494C154.983 127.655 154.739 127.735 154.446 127.735C154.158 127.735 153.904 127.655 153.684 127.494ZM155.662 121.678C155.662 122.074 155.793 122.413 156.057 122.696C156.316 122.975 156.606 123.114 156.929 123.114C157.744 123.114 158.152 122.528 158.152 121.356V118.148C158.152 117.611 158.057 117.191 157.866 116.888C157.676 116.581 157.407 116.427 157.06 116.427C156.44 116.427 156.013 116.769 155.779 117.452C155.701 117.687 155.662 117.967 155.662 118.294V121.678ZM158.855 122.059C159.099 121.966 159.236 121.646 159.265 121.1C159.289 120.553 159.302 120.147 159.302 119.884C159.302 119.615 159.299 119.393 159.294 119.217C159.294 119.037 159.292 118.851 159.287 118.661C159.267 117.948 159.211 117.533 159.119 117.416C159.026 117.298 158.938 117.22 158.855 117.181V122.059ZM153.882 124.19C154.111 124.034 154.241 123.707 154.27 123.209C154.28 122.926 154.287 122.599 154.292 122.228C154.302 121.393 154.307 120.863 154.307 120.638C154.311 120.409 154.314 120.213 154.314 120.052V119.474C154.314 119.396 154.311 119.3 154.307 119.188C154.307 119.071 154.304 118.946 154.299 118.814C154.299 118.678 154.294 118.546 154.285 118.419C154.26 117.936 154.206 117.623 154.123 117.481C154.045 117.335 153.965 117.235 153.882 117.181V117.621C153.882 118.47 153.862 118.968 153.823 119.115C153.789 119.256 153.73 119.364 153.647 119.437C153.569 119.51 153.452 119.574 153.296 119.627C153.589 119.73 153.755 119.852 153.794 119.994C153.852 120.208 153.882 120.809 153.882 121.795V124.19Z" fill="black"/>
</svg>
